Callisto-Regular.ufo
<glyph name="exclam" format="2">
	<advance width="303"/>
	<unicode hex="0021"/>
	<outline>
		<component base="period"/>
		<contour>
			<point x="172" y="265" type="curve"/>
			<point x="192" y="495"/>
			<point x="210" y="770"/>
			<point x="210" y="790" type="curve" smooth="yes"/>
			<point x="210" y="818"/>
			<point x="80" y="818"/>
			<point x="80" y="790" type="curve" smooth="yes"/>
			<point x="80" y="770"/>
			<point x="98" y="495"/>
			<point x="118" y="265" type="curve"/>
			<point x="120" y="253"/>
			<point x="170" y="253"/>
		</contour>
	</outline>
</glyph>
<glyph name="numbersign" format="2">
	<advance width="564"/>
	<unicode hex="0023"/>
	<outline>
		<contour>
			<point x="342" y="-180" type="line" name="_corner01"/>
			<point x="482" y="735" type="line"/>
			<point x="432" y="745" type="line" name="_corner00"/>
			<point x="292" y="-170" type="line"/>
		</contour>
		<contour>
			<point x="222" y="745" type="line" name="_corner03"/>
			<point x="82" y="-170" type="line"/>
			<point x="132" y="-180" type="line" name="_corner02"/>
			<point x="272" y="735" type="line"/>
		</contour>
		<contour>
			<point x="82" y="500" type="line"/>
			<point x="72" y="420" type="line" name="_corner04"/>
			<point x="542" y="420" type="line"/>
			<point x="552" y="500" type="line" name="_corner05"/>
		</contour>
		<contour>
			<point x="22" y="145" type="line"/>
			<point x="12" y="65" type="line" name="_corner06"/>
			<point x="482" y="65" type="line"/>
			<point x="492" y="145" type="line" name="_corner07"/>
		</contour>
	</outline>
</glyph>
<glyph name="percent" format="2">
	<advance width="947"/>
	<unicode hex="0025"/>
	<outline>
		<contour>
			<point x="150" y="-20" type="line" name="_corner01"/>
			<point x="850" y="730" type="line"/>
			<point x="795" y="780" type="line" name="_corner00"/>
			<point x="95" y="30" type="line"/>
		</contour>
		<contour>
			<point x="208" y="380" type="curve" smooth="yes"/>
			<point x="317" y="380"/>
			<point x="413" y="460"/>
			<point x="421" y="580" type="curve" smooth="yes"/>
			<point x="429" y="700"/>
			<point x="345" y="780"/>
			<point x="234" y="780" type="curve" smooth="yes"/>
			<point x="125" y="780"/>
			<point x="29" y="700"/>
			<point x="21" y="580" type="curve" smooth="yes"/>
			<point x="13" y="460"/>
			<point x="97" y="380"/>
		</contour>
		<contour>
			<point x="230" y="455" type="curve" smooth="yes"/>
			<point x="161" y="455"/>
			<point x="106" y="501"/>
			<point x="101" y="580" type="curve" smooth="yes"/>
			<point x="96" y="659"/>
			<point x="144" y="705"/>
			<point x="212" y="705" type="curve" smooth="yes"/>
			<point x="281" y="705"/>
			<point x="336" y="659"/>
			<point x="341" y="580" type="curve" smooth="yes"/>
			<point x="346" y="501"/>
			<point x="298" y="455"/>
		</contour>
		<contour>
			<point x="713" y="-20" type="curve" smooth="yes"/>
			<point x="822" y="-20"/>
			<point x="918" y="60"/>
			<point x="926" y="180" type="curve" smooth="yes"/>
			<point x="934" y="300"/>
			<point x="850" y="380"/>
			<point x="739" y="380" type="curve" smooth="yes"/>
			<point x="630" y="380"/>
			<point x="534" y="300"/>
			<point x="526" y="180" type="curve" smooth="yes"/>
			<point x="518" y="60"/>
			<point x="602" y="-20"/>
		</contour>
		<contour>
			<point x="735" y="55" type="curve" smooth="yes"/>
			<point x="666" y="55"/>
			<point x="611" y="101"/>
			<point x="606" y="180" type="curve" smooth="yes"/>
			<point x="601" y="259"/>
			<point x="649" y="305"/>
			<point x="717" y="305" type="curve" smooth="yes"/>
			<point x="786" y="305"/>
			<point x="841" y="259"/>
			<point x="846" y="180" type="curve" smooth="yes"/>
			<point x="851" y="101"/>
			<point x="803" y="55"/>
		</contour>
	</outline>
</glyph>
<glyph name="ampersand" format="2">
	<advance width="793"/>
	<unicode hex="0026"/>
	<outline>
		<contour>
			<point x="220" y="484" type="curve"/>
			<point x="245" y="445" type="line"/>
			<point x="364" y="528"/>
			<point x="405" y="565"/>
			<point x="408" y="630" type="curve" smooth="yes"/>
			<point x="410" y="706"/>
			<point x="360" y="770"/>
			<point x="265" y="770" type="curve" smooth="yes"/>
			<point x="197" y="770"/>
			<point x="111" y="703"/>
			<point x="108" y="620" type="curve" smooth="yes"/>
			<point x="105" y="533"/>
			<point x="168" y="471"/>
			<point x="239" y="379" type="curve" smooth="yes"/>
			<point x="468" y="82" type="line" smooth="yes"/>
			<point x="562" y="-39"/>
			<point x="655" y="-31"/>
			<point x="760" y="74" type="curve"/>
			<point x="729" y="105" type="line" name="_corner02"/>
			<point x="705" y="85"/>
			<point x="678" y="68"/>
			<point x="649" y="68" type="curve" smooth="yes"/>
			<point x="621" y="68"/>
			<point x="586" y="81"/>
			<point x="538" y="143" type="curve" smooth="yes"/>
			<point x="241" y="523" type="line" smooth="yes"/>
			<point x="201" y="574"/>
			<point x="178" y="602"/>
			<point x="179" y="640" type="curve" smooth="yes"/>
			<point x="181" y="685"/>
			<point x="212" y="709"/>
			<point x="255" y="709" type="curve" smooth="yes"/>
			<point x="292" y="709"/>
			<point x="330" y="671"/>
			<point x="328" y="622" type="curve" smooth="yes"/>
			<point x="327" y="571"/>
			<point x="299" y="539"/>
		</contour>
		<contour>
			<point x="484" y="203" type="line"/>
			<point x="519" y="159" type="line"/>
			<point x="689" y="350" type="line" name="_corner00"/>
			<point x="609" y="350" type="line" name="_corner01"/>
		</contour>
		<contour>
			<point x="483" y="114" type="curve"/>
			<point x="442" y="153" type="line"/>
			<point x="313" y="5"/>
			<point x="104" y="74"/>
			<point x="110" y="249" type="curve" smooth="yes"/>
			<point x="113" y="334"/>
			<point x="187" y="393"/>
			<point x="230" y="429" type="curve"/>
			<point x="194" y="468" type="line"/>
			<point x="128" y="411"/>
			<point x="18" y="330"/>
			<point x="15" y="230" type="curve" smooth="yes"/>
			<point x="11" y="109"/>
			<point x="99" y="-10"/>
			<point x="244" y="-10" type="curve" smooth="yes"/>
			<point x="331" y="-10"/>
			<point x="390" y="28"/>
		</contour>
	</outline>
</glyph>
<glyph name="quotesingle" format="2">
	<advance width="155"/>
	<unicode hex="0027"/>
	<outline>
		<contour>
			<point x="93" y="513" type="curve"/>
			<point x="133" y="628"/>
			<point x="166" y="739"/>
			<point x="170" y="759" type="curve"/>
			<point x="159" y="782"/>
			<point x="80" y="796"/>
			<point x="61" y="778" type="curve"/>
			<point x="58" y="758"/>
			<point x="51" y="642"/>
			<point x="50" y="521" type="curve"/>
			<point x="49" y="509"/>
			<point x="89" y="502"/>
		</contour>
	</outline>
</glyph>
<glyph name="asterisk" format="2">
	<advance width="432"/>
	<unicode hex="002A"/>
	<outline>
		<contour>
			<point x="41" y="640" type="curve" smooth="yes"/>
			<point x="159" y="617" type="line" smooth="yes"/>
			<point x="169" y="615"/>
			<point x="181" y="651"/>
			<point x="172" y="655" type="curve" smooth="yes"/>
			<point x="62" y="707" type="line" smooth="yes"/>
			<point x="39" y="717"/>
			<point x="16" y="645"/>
		</contour>
		<contour>
			<point x="143" y="459" type="curve" smooth="yes"/>
			<point x="201" y="565" type="line" smooth="yes"/>
			<point x="206" y="574"/>
			<point x="175" y="596"/>
			<point x="169" y="589" type="curve" smooth="yes"/>
			<point x="86" y="501" type="line" smooth="yes"/>
			<point x="69" y="482"/>
			<point x="130" y="437"/>
		</contour>
		<contour>
			<point x="346" y="501" type="curve" smooth="yes"/>
			<point x="263" y="589" type="line" smooth="yes"/>
			<point x="257" y="596"/>
			<point x="226" y="574"/>
			<point x="231" y="565" type="curve" smooth="yes"/>
			<point x="289" y="459" type="line" smooth="yes"/>
			<point x="302" y="437"/>
			<point x="363" y="482"/>
		</contour>
		<contour>
			<point x="370" y="707" type="curve" smooth="yes"/>
			<point x="260" y="655" type="line" smooth="yes"/>
			<point x="251" y="651"/>
			<point x="263" y="615"/>
			<point x="273" y="617" type="curve" smooth="yes"/>
			<point x="391" y="640" type="line" smooth="yes"/>
			<point x="416" y="645"/>
			<point x="393" y="717"/>
		</contour>
		<contour>
			<point x="181" y="793" type="curve" smooth="yes"/>
			<point x="196" y="673" type="line" smooth="yes"/>
			<point x="197" y="663"/>
			<point x="235" y="663"/>
			<point x="236" y="673" type="curve" smooth="yes"/>
			<point x="251" y="793" type="line" smooth="yes"/>
			<point x="254" y="818"/>
			<point x="178" y="818"/>
		</contour>
	</outline>
</glyph>
<glyph name="plus" format="2">
	<advance width="627"/>
	<unicode hex="002B"/>
	<outline>
		<contour>
			<point x="346" y="490" type="line"/>
			<point x="281" y="490" type="line" name="_corner00"/>
			<point x="286" y="285" type="line"/>
			<point x="91" y="290" type="line"/>
			<point x="91" y="225" type="line" name="_corner02"/>
			<point x="286" y="230" type="line"/>
			<point x="281" y="25" type="line"/>
			<point x="346" y="25" type="line" name="_corner01"/>
			<point x="341" y="230" type="line"/>
			<point x="536" y="225" type="line"/>
			<point x="536" y="290" type="line" name="_corner03"/>
			<point x="341" y="285" type="line"/>
		</contour>
	</outline>
</glyph>
<glyph name="comma" format="2">
	<advance width="304"/>
	<unicode hex="002C"/>
	<outline>
		<contour>
			<point x="86" y="55" type="curve"/>
			<point x="155" y="3"/>
			<point x="133" y="-43"/>
			<point x="61" y="-135" type="curve"/>
			<point x="101" y="-165" type="line" name="_corner00"/>
			<point x="208" y="-46"/>
			<point x="285" y="69"/>
			<point x="156" y="133" type="curve"/>
			<point x="123" y="125"/>
			<point x="89" y="83"/>
		</contour>
	</outline>
</glyph>
<glyph name="hyphen" format="2">
	<advance width="448"/>
	<unicode hex="002D"/>
	<outline>
		<contour>
			<point x="77" y="260" type="line"/>
			<point x="87" y="200" type="line" name="_corner00"/>
			<point x="372" y="230" type="line"/>
			<point x="358" y="320" type="line" name="_corner01"/>
		</contour>
	</outline>
</glyph>
<glyph name="period" format="2">
	<advance width="303"/>
	<unicode hex="002E"/>
	<outline>
		<contour>
			<point x="162" y="-10" type="curve"/>
			<point x="198" y="6"/>
			<point x="223" y="46"/>
			<point x="223" y="72" type="curve"/>
			<point x="206" y="109"/>
			<point x="165" y="133"/>
			<point x="140" y="133" type="curve"/>
			<point x="104" y="116"/>
			<point x="80" y="76"/>
			<point x="80" y="50" type="curve"/>
			<point x="96" y="13"/>
			<point x="137" y="-10"/>
		</contour>
	</outline>
</glyph>
<glyph name="slash" format="2">
	<advance width="450"/>
	<unicode hex="002F"/>
	<outline>
		<contour>
			<point x="370" y="865" type="line" name="_corner00"/>
			<point x="30" y="-130" type="line"/>
			<point x="80" y="-150" type="line" name="_corner01"/>
			<point x="420" y="845" type="line"/>
		</contour>
	</outline>
</glyph>
<glyph name="equal" format="2">
	<advance width="622"/>
	<unicode hex="003D"/>
	<outline>
		<contour>
			<point x="61" y="380" type="line"/>
			<point x="61" y="310" type="line" name="_corner00"/>
			<point x="561" y="310" type="line"/>
			<point x="561" y="380" type="line" name="_corner01"/>
			<point x="311" y="370" type="line"/>
		</contour>
		<contour>
			<point x="561" y="140" type="line"/>
			<point x="561" y="210" type="line" name="_corner02"/>
			<point x="61" y="210" type="line"/>
			<point x="61" y="140" type="line" name="_corner03"/>
			<point x="311" y="150" type="line"/>
		</contour>
	</outline>
</glyph>
<glyph name="greater" format="2">
	<advance width="489"/>
	<unicode hex="003E"/>
	<outline>
		<contour>
			<point x="53" y="70" type="line" smooth="yes"/>
			<point x="41" y="61"/>
			<point x="65" y="22"/>
			<point x="78" y="30" type="curve" smooth="yes"/>
			<point x="402" y="218" type="line" smooth="yes"/>
			<point x="433" y="236"/>
			<point x="439" y="245"/>
			<point x="439" y="250" type="curve" smooth="yes"/>
			<point x="439" y="255"/>
			<point x="433" y="264"/>
			<point x="402" y="282" type="curve" smooth="yes"/>
			<point x="78" y="470" type="line" smooth="yes"/>
			<point x="65" y="478"/>
			<point x="41" y="439"/>
			<point x="53" y="430" type="curve" smooth="yes"/>
			<point x="271" y="269" type="line" smooth="yes"/>
			<point x="285" y="258"/>
			<point x="287" y="254"/>
			<point x="287" y="250" type="curve" smooth="yes"/>
			<point x="287" y="246"/>
			<point x="285" y="242"/>
			<point x="271" y="231" type="curve" smooth="yes"/>
		</contour>
	</outline>
</glyph>
<glyph name="question" format="2">
	<advance width="466"/>
	<unicode hex="003F"/>
	<outline>
		<contour>
			<point x="396" y="597" type="curve" smooth="yes"/>
			<point x="396" y="737"/>
			<point x="251" y="811"/>
			<point x="141" y="811" type="curve" smooth="yes"/>
			<point x="110" y="811"/>
			<point x="81" y="805"/>
			<point x="44" y="785" type="curve" smooth="yes"/>
			<point x="9" y="766"/>
			<point x="46" y="664"/>
			<point x="92" y="688" type="curve" smooth="yes"/>
			<point x="198" y="744"/>
			<point x="306" y="752"/>
			<point x="306" y="630" type="curve" smooth="yes"/>
			<point x="306" y="481"/>
			<point x="-6" y="524"/>
			<point x="131" y="270" type="curve"/>
			<point x="171" y="280" type="line" name="_corner00"/>
			<point x="127" y="452"/>
			<point x="396" y="435"/>
		</contour>
		<component base="period" xOffset="16"/>
	</outline>
</glyph>
<glyph name="at" format="2">
	<advance width="992"/>
	<unicode hex="0040"/>
	<outline>
		<contour>
			<point x="581" y="119" type="line" smooth="yes"/>
			<point x="563" y="36"/>
			<point x="615" y="-7"/>
			<point x="686" y="-7" type="curve" smooth="yes"/>
			<point x="835" y="-7"/>
			<point x="942" y="194"/>
			<point x="942" y="385" type="curve" smooth="yes"/>
			<point x="942" y="558"/>
			<point x="834" y="724"/>
			<point x="607" y="724" type="curve" smooth="yes"/>
			<point x="257" y="724"/>
			<point x="50" y="401"/>
			<point x="50" y="134" type="curve" smooth="yes"/>
			<point x="50" y="-57"/>
			<point x="154" y="-219"/>
			<point x="380" y="-219" type="curve" smooth="yes"/>
			<point x="479" y="-219"/>
			<point x="570" y="-178"/>
			<point x="632" y="-135" type="curve" smooth="yes"/>
			<point x="644" y="-127"/>
			<point x="616" y="-95"/>
			<point x="602" y="-101" type="curve" smooth="yes"/>
			<point x="297" y="-241"/>
			<point x="144" y="-58"/>
			<point x="144" y="164" type="curve" smooth="yes"/>
			<point x="144" y="393"/>
			<point x="305" y="662"/>
			<point x="586" y="662" type="curve" smooth="yes"/>
			<point x="772" y="662"/>
			<point x="863" y="510"/>
			<point x="863" y="358" type="curve" smooth="yes"/>
			<point x="863" y="205"/>
			<point x="791" y="51"/>
			<point x="711" y="51" type="curve" smooth="yes"/>
			<point x="681" y="51"/>
			<point x="650" y="69"/>
			<point x="664" y="134" type="curve" smooth="yes"/>
			<point x="744" y="500" type="line" name="_corner00"/>
			<point x="660" y="481" type="line"/>
		</contour>
		<contour>
			<point x="407" y="-10" type="curve" smooth="yes"/>
			<point x="468" y="-10"/>
			<point x="548" y="33"/>
			<point x="630" y="140" type="curve"/>
			<point x="593" y="150" type="line"/>
			<point x="532" y="95"/>
			<point x="503" y="69"/>
			<point x="465" y="69" type="curve" smooth="yes"/>
			<point x="391" y="69"/>
			<point x="367" y="147"/>
			<point x="395" y="279" type="curve" smooth="yes"/>
			<point x="420" y="400"/>
			<point x="471" y="443"/>
			<point x="547" y="443" type="curve" smooth="yes"/>
			<point x="571" y="443"/>
			<point x="611" y="422"/>
			<point x="641" y="390" type="curve"/>
			<point x="681" y="475" type="line"/>
			<point x="660" y="490"/>
			<point x="610" y="511"/>
			<point x="575" y="511" type="curve" smooth="yes"/>
			<point x="462" y="511"/>
			<point x="329" y="393"/>
			<point x="295" y="232" type="curve" smooth="yes"/>
			<point x="267" y="100"/>
			<point x="303" y="-10"/>
		</contour>
	</outline>
</glyph>
<glyph name="A" format="2">
	<advance width="759"/>
	<unicode hex="0041"/>
	<anchor x="384" y="0" name="bottom"/>
	<anchor x="760" y="-1" name="ogonek"/>
	<anchor x="384" y="760" name="top"/>
	<outline>
		<contour>
			<point x="402" y="800" type="line" name="_corner04"/>
			<point x="359" y="760" type="line"/>
			<point x="319" y="735" type="line" name="_corner05"/>
			<point x="329" y="700" type="line"/>
			<point x="349" y="680" type="line"/>
			<point x="614" y="0" type="line" name="_corner01"/>
			<point x="724" y="0" type="line" name="_corner02"/>
		</contour>
		<contour>
			<point x="119" y="0" type="line" name="_corner00"/>
			<point x="409" y="760" type="line"/>
			<point x="349" y="750" type="line"/>
			<point x="34" y="0" type="line" name="_corner03"/>
		</contour>
		<contour>
			<point x="184" y="320" type="line"/>
			<point x="184" y="265" type="line"/>
			<point x="574" y="265" type="line"/>
			<point x="574" y="320" type="line"/>
		</contour>
	</outline>
</glyph>
<glyph name="B" format="2">
	<advance width="694"/>
	<unicode hex="0042"/>
	<anchor x="364" y="0" name="bottom"/>
	<anchor x="364" y="380" name="center"/>
	<anchor x="364" y="760" name="top"/>
	<outline>
		<contour>
			<point x="153" y="760" type="line" name="_corner02"/>
			<point x="153" y="0" type="line" name="_corner03"/>
			<point x="370" y="0" type="line" smooth="yes"/>
			<point x="539" y="0"/>
			<point x="624" y="105"/>
			<point x="624" y="210" type="curve" smooth="yes"/>
			<point x="624" y="291"/>
			<point x="572" y="373"/>
			<point x="467" y="404" type="curve"/>
			<point x="547" y="432"/>
			<point x="588" y="499"/>
			<point x="588" y="568" type="curve" smooth="yes"/>
			<point x="588" y="663"/>
			<point x="511" y="760"/>
			<point x="350" y="760" type="curve" smooth="yes"/>
		</contour>
		<contour>
			<point x="253" y="65" type="curve"/>
			<point x="253" y="360" type="line"/>
			<point x="275" y="364"/>
			<point x="298" y="365"/>
			<point x="330" y="365" type="curve" smooth="yes"/>
			<point x="425" y="365"/>
			<point x="519" y="324"/>
			<point x="519" y="210" type="curve" smooth="yes"/>
			<point x="519" y="108"/>
			<point x="439" y="59"/>
			<point x="327" y="59" type="curve" smooth="yes"/>
			<point x="304" y="59"/>
			<point x="279" y="61"/>
		</contour>
		<contour>
			<point x="253" y="419" type="curve"/>
			<point x="253" y="697" type="line"/>
			<point x="272" y="700"/>
			<point x="291" y="702"/>
			<point x="309" y="702" type="curve" smooth="yes"/>
			<point x="409" y="702"/>
			<point x="489" y="652"/>
			<point x="489" y="550" type="curve" smooth="yes"/>
			<point x="489" y="430"/>
			<point x="362" y="411"/>
		</contour>
	</outline>
</glyph>
<glyph name="C" format="2">
	<advance width="792"/>
	<unicode hex="0043"/>
	<anchor x="411" y="0" name="bottom"/>
	<anchor x="461" y="760" name="top"/>
	<outline>
		<contour>
			<point x="685" y="560" type="curve"/>
			<point x="725" y="570" type="line" name="_corner00"/>
			<point x="690" y="730" type="line"/>
			<point x="623" y="760"/>
			<point x="554" y="774"/>
			<point x="488" y="774" type="curve" smooth="yes"/>
			<point x="263" y="774"/>
			<point x="70" y="612"/>
			<point x="70" y="375" type="curve" smooth="yes"/>
			<point x="70" y="131"/>
			<point x="255" y="-9"/>
			<point x="430" y="-9" type="curve" smooth="yes"/>
			<point x="559" y="-9"/>
			<point x="663" y="45"/>
			<point x="750" y="145" type="curve"/>
			<point x="715" y="179" type="line" name="_corner01"/>
			<point x="640" y="101"/>
			<point x="554" y="66"/>
			<point x="473" y="66" type="curve" smooth="yes"/>
			<point x="316" y="66"/>
			<point x="177" y="198"/>
			<point x="177" y="414" type="curve" smooth="yes"/>
			<point x="177" y="609"/>
			<point x="321" y="712"/>
			<point x="456" y="712" type="curve" smooth="yes"/>
			<point x="552" y="712"/>
			<point x="608" y="678"/>
		</contour>
	</outline>
</glyph>
<glyph name="D" format="2">
	<advance width="884"/>
	<unicode hex="0044"/>
	<anchor x="444" y="0" name="bottom"/>
	<anchor x="444" y="380" name="center"/>
	<anchor x="314" y="760" name="top"/>
	<outline>
		<contour>
			<point x="380" y="0" type="line" smooth="yes"/>
			<point x="625" y="0"/>
			<point x="804" y="163"/>
			<point x="804" y="395" type="curve" smooth="yes"/>
			<point x="804" y="613"/>
			<point x="633" y="760"/>
			<point x="408" y="760" type="curve" smooth="yes"/>
			<point x="153" y="760" type="line" name="_corner01"/>
			<point x="153" y="0" type="line" name="_corner00"/>
		</contour>
		<contour>
			<point x="253" y="65" type="curve" name="_corner03"/>
			<point x="253" y="695" type="line" name="_corner02"/>
			<point x="420" y="719"/>
			<point x="697" y="693"/>
			<point x="697" y="354" type="curve" smooth="yes"/>
			<point x="697" y="85"/>
			<point x="469" y="31"/>
		</contour>
	</outline>
</glyph>
<glyph name="E" format="2">
	<advance width="725"/>
	<unicode hex="0045"/>
	<anchor x="354" y="0" name="bottom"/>
	<anchor x="620" y="9" name="ogonek"/>
	<anchor x="354" y="760" name="top"/>
	<anchor x="43" y="760" name="topleft"/>
	<outline>
		<contour>
			<point x="153" y="-1" type="line" name="_corner00"/>
			<point x="618" y="-1" type="line" name="_corner01"/>
			<point x="654" y="179" type="line"/>
			<point x="621" y="193" type="line" name="_corner05"/>
			<point x="554" y="83"/>
			<point x="540" y="55"/>
			<point x="398" y="55" type="curve" smooth="yes"/>
			<point x="271" y="55"/>
			<point x="253" y="60"/>
			<point x="253" y="119" type="curve" smooth="yes"/>
			<point x="253" y="365" type="line"/>
			<point x="387" y="365" type="line"/>
			<point x="452" y="365"/>
			<point x="449" y="359"/>
			<point x="484" y="296" type="curve"/>
			<point x="488" y="289"/>
			<point x="513" y="293"/>
			<point x="513" y="302" type="curve"/>
			<point x="513" y="358"/>
			<point x="512" y="372"/>
			<point x="512" y="393" type="curve" smooth="yes"/>
			<point x="512" y="413"/>
			<point x="513" y="427"/>
			<point x="513" y="483" type="curve"/>
			<point x="513" y="492"/>
			<point x="488" y="496"/>
			<point x="484" y="489" type="curve"/>
			<point x="449" y="426"/>
			<point x="452" y="420"/>
			<point x="387" y="420" type="curve"/>
			<point x="253" y="420" type="line"/>
			<point x="253" y="640" type="line" smooth="yes"/>
			<point x="253" y="699"/>
			<point x="271" y="704"/>
			<point x="398" y="704" type="curve" smooth="yes"/>
			<point x="520" y="704"/>
			<point x="524" y="686"/>
			<point x="591" y="576" type="curve"/>
			<point x="624" y="590" type="line" name="_corner03"/>
			<point x="598" y="770" type="line" name="_corner04"/>
			<point x="448" y="760" type="line"/>
			<point x="153" y="760" type="line" name="_corner02"/>
		</contour>
	</outline>
</glyph>
<glyph name="F" format="2">
	<advance width="665"/>
	<unicode hex="0046"/>
	<anchor x="339" y="0" name="bottom"/>
	<anchor x="339" y="760" name="top"/>
	<outline>
		<contour>
			<point x="153" y="0" type="line" name="_corner00"/>
			<point x="253" y="0" type="line" name="_corner01"/>
			<point x="253" y="355" type="line"/>
			<point x="397" y="355" type="line"/>
			<point x="462" y="355"/>
			<point x="459" y="349"/>
			<point x="494" y="286" type="curve"/>
			<point x="498" y="279"/>
			<point x="523" y="283"/>
			<point x="523" y="292" type="curve"/>
			<point x="523" y="328"/>
			<point x="522" y="362"/>
			<point x="522" y="383" type="curve" smooth="yes"/>
			<point x="522" y="403"/>
			<point x="523" y="437"/>
			<point x="523" y="473" type="curve"/>
			<point x="523" y="482"/>
			<point x="498" y="486"/>
			<point x="494" y="479" type="curve"/>
			<point x="459" y="416"/>
			<point x="462" y="410"/>
			<point x="397" y="410" type="curve"/>
			<point x="253" y="410" type="line"/>
			<point x="253" y="640" type="line" smooth="yes"/>
			<point x="253" y="699"/>
			<point x="271" y="704"/>
			<point x="398" y="704" type="curve" smooth="yes"/>
			<point x="540" y="704"/>
			<point x="544" y="686"/>
			<point x="611" y="576" type="curve"/>
			<point x="644" y="590" type="line" name="_corner02"/>
			<point x="618" y="770" type="line" name="_corner03"/>
			<point x="468" y="760" type="line"/>
			<point x="153" y="760" type="line" name="_corner04"/>
		</contour>
	</outline>
</glyph>
<glyph name="G" format="2">
	<advance width="852"/>
	<unicode hex="0047"/>
	<anchor x="436" y="0" name="bottom"/>
	<anchor x="456" y="740" name="top"/>
	<outline>
		<contour>
			<point x="635" y="370" type="line" name="_corner01"/>
			<point x="635" y="60" type="line"/>
			<point x="730" y="115" type="line"/>
			<point x="730" y="370" type="line" name="_corner00"/>
		</contour>
		<contour>
			<point x="177" y="424" type="curve" smooth="yes"/>
			<point x="177" y="609"/>
			<point x="321" y="717"/>
			<point x="456" y="711" type="curve" smooth="yes"/>
			<point x="552" y="707"/>
			<point x="608" y="678"/>
			<point x="685" y="560" type="curve"/>
			<point x="725" y="570" type="line" name="_corner02"/>
			<point x="690" y="730" type="line"/>
			<point x="623" y="760"/>
			<point x="554" y="774"/>
			<point x="488" y="774" type="curve" smooth="yes"/>
			<point x="263" y="774"/>
			<point x="70" y="612"/>
			<point x="70" y="375" type="curve" smooth="yes"/>
			<point x="70" y="131"/>
			<point x="255" y="-9"/>
			<point x="430" y="-9" type="curve" smooth="yes"/>
			<point x="559" y="-9"/>
			<point x="653" y="45"/>
			<point x="730" y="115" type="curve"/>
			<point x="685" y="149" type="line"/>
			<point x="495" y="-41"/>
			<point x="177" y="102"/>
		</contour>
	</outline>
</glyph>
<glyph name="H" format="2">
	<advance width="906"/>
	<unicode hex="0048"/>
	<anchor x="453" y="0" name="bottom"/>
	<anchor x="453" y="380" name="center"/>
	<anchor x="453" y="760" name="top"/>
	<anchor x="64" y="760" name="topleft"/>
	<outline>
		<contour>
			<point x="153" y="760" type="line" name="_corner03"/>
			<point x="153" y="0" type="line" name="_corner00"/>
			<point x="253" y="0" type="line" name="_corner01"/>
			<point x="253" y="760" type="line" name="_corner02"/>
		</contour>
		<contour>
			<point x="653" y="760" type="line" name="_corner07"/>
			<point x="653" y="0" type="line" name="_corner04"/>
			<point x="753" y="0" type="line" name="_corner05"/>
			<point x="753" y="760" type="line" name="_corner06"/>
		</contour>
		<contour>
			<point x="199" y="420" type="line"/>
			<point x="199" y="365" type="line"/>
			<point x="689" y="365" type="line"/>
			<point x="689" y="420" type="line"/>
		</contour>
	</outline>
</glyph>
<glyph name="I" format="2">
	<advance width="406"/>
	<unicode hex="0049"/>
	<anchor x="203" y="0" name="bottom"/>
	<anchor x="330" y="10" name="ogonek"/>
	<anchor x="203" y="730" name="top"/>
	<anchor x="64" y="760" name="topleft"/>
	<outline>
		<contour>
			<point x="153" y="760" type="line" name="_corner03"/>
			<point x="153" y="0" type="line" name="_corner00"/>
			<point x="253" y="0" type="line" name="_corner01"/>
			<point x="253" y="760" type="line" name="_corner02"/>
		</contour>
	</outline>
</glyph>
<glyph name="J" format="2">
	<advance width="444"/>
	<unicode hex="004A"/>
	<anchor x="241" y="0" name="bottom"/>
	<anchor x="241" y="760" name="top"/>
	<outline>
		<contour>
			<point x="191" y="760" type="line" name="_corner01"/>
			<point x="191" y="125" type="line" smooth="yes"/>
			<point x="191" y="3"/>
			<point x="164" y="-44"/>
			<point x="72" y="-142" type="curve"/>
			<point x="63" y="-152"/>
			<point x="88" y="-181"/>
			<point x="102" y="-173" type="curve"/>
			<point x="248" y="-67"/>
			<point x="291" y="-32"/>
			<point x="291" y="160" type="curve" smooth="yes"/>
			<point x="291" y="760" type="line" name="_corner00"/>
		</contour>
	</outline>
</glyph>
<glyph name="K" format="2">
	<advance width="782"/>
	<unicode hex="004B"/>
	<anchor x="403" y="0" name="bottom"/>
	<anchor x="403" y="760" name="top"/>
	<outline>
		<contour>
			<point x="153" y="760" type="line" name="_corner03"/>
			<point x="153" y="0" type="line" name="_corner00"/>
			<point x="253" y="0" type="line" name="_corner01"/>
			<point x="253" y="760" type="line" name="_corner02"/>
		</contour>
		<contour>
			<point x="364" y="435" type="line"/>
			<point x="290" y="369" type="line"/>
			<point x="574" y="0" type="line"/>
			<point x="714" y="0" type="line" name="_corner04"/>
		</contour>
		<contour>
			<point x="243" y="307" type="line"/>
			<point x="563" y="620" type="line" smooth="yes"/>
			<point x="645" y="700"/>
			<point x="666" y="701"/>
			<point x="738" y="729" type="curve"/>
			<point x="746" y="734"/>
			<point x="742" y="761"/>
			<point x="731" y="761" type="curve"/>
			<point x="667" y="761"/>
			<point x="651" y="760"/>
			<point x="631" y="760" type="curve"/>
			<point x="601" y="760" type="line"/>
			<point x="581" y="760"/>
			<point x="565" y="761"/>
			<point x="501" y="761" type="curve"/>
			<point x="491" y="761"/>
			<point x="486" y="734"/>
			<point x="495" y="729" type="curve"/>
			<point x="558" y="695"/>
			<point x="535" y="680"/>
			<point x="445" y="587" type="curve" smooth="yes"/>
			<point x="243" y="380" type="line"/>
		</contour>
	</outline>
</glyph>
<glyph name="L" format="2">
	<advance width="705"/>
	<unicode hex="004C"/>
	<anchor x="344" y="0" name="bottom"/>
	<anchor x="344" y="380" name="center"/>
	<anchor x="224" y="730" name="top"/>
	<anchor x="375" y="760" name="topright"/>
	<outline>
		<contour>
			<point x="153" y="-1" type="line" name="_corner03"/>
			<point x="598" y="-1" type="line" name="_corner00"/>
			<point x="634" y="179" type="line"/>
			<point x="601" y="193" type="line" name="_corner01"/>
			<point x="534" y="83"/>
			<point x="520" y="55"/>
			<point x="398" y="55" type="curve" smooth="yes"/>
			<point x="271" y="55"/>
			<point x="253" y="60"/>
			<point x="253" y="119" type="curve" smooth="yes"/>
			<point x="253" y="760" type="line" name="_corner04"/>
			<point x="153" y="760" type="line" name="_corner02"/>
		</contour>
	</outline>
</glyph>
<glyph name="M" format="2">
	<advance width="1099"/>
	<unicode hex="004D"/>
	<anchor x="550" y="0" name="bottom"/>
	<anchor x="550" y="760" name="top"/>
	<outline>
		<contour>
			<point x="521" y="10" type="line" smooth="yes"/>
			<point x="528" y="-4"/>
			<point x="574" y="6"/>
			<point x="580" y="20" type="curve" smooth="yes"/>
			<point x="906" y="760" type="line"/>
			<point x="836" y="760" type="line"/>
			<point x="568" y="150" type="line"/>
			<point x="276" y="760" type="line"/>
			<point x="160" y="760" type="line"/>
		</contour>
		<contour>
			<point x="228" y="0" type="line" name="_corner01"/>
			<point x="213" y="760" type="line"/>
			<point x="153" y="760" type="line" name="_corner00"/>
			<point x="153" y="0" type="line" name="_corner03"/>
		</contour>
		<contour>
			<point x="946" y="760" type="line" name="_corner04"/>
			<point x="856" y="760" type="line"/>
			<point x="846" y="0" type="line" name="_corner05"/>
			<point x="946" y="0" type="line" name="_corner02"/>
		</contour>
	</outline>
</glyph>
<glyph name="N" format="2">
	<advance width="905"/>
	<unicode hex="004E"/>
	<anchor x="447" y="0" name="bottom"/>
	<anchor x="447" y="760" name="top"/>
	<outline>
		<contour>
			<point x="682" y="760" type="line" name="_corner01"/>
			<point x="692" y="170" type="line"/>
			<point x="213" y="760" type="line"/>
			<point x="153" y="760" type="line" name="_corner02"/>
			<point x="153" y="0" type="line" name="_corner03"/>
			<point x="223" y="0" type="line" name="_corner04"/>
			<point x="213" y="600" type="line"/>
			<point x="697" y="-10" type="line"/>
			<point x="757" y="0" type="line" name="_corner05"/>
			<point x="752" y="160" type="line"/>
			<point x="752" y="760" type="line" name="_corner00"/>
		</contour>
	</outline>
</glyph>
<glyph name="O" format="2">
	<advance width="900"/>
	<unicode hex="004F"/>
	<anchor x="450" y="0" name="bottom"/>
	<anchor x="450" y="380" name="center"/>
	<anchor x="802" y="10" name="ogonek"/>
	<anchor x="450" y="750" name="top"/>
	<anchor x="30" y="760" name="topleft"/>
	<anchor x="870" y="760" name="topright"/>
	<outline>
		<contour>
			<point x="436" y="-10" type="curve" smooth="yes"/>
			<point x="651" y="-10"/>
			<point x="830" y="163"/>
			<point x="830" y="395" type="curve" smooth="yes"/>
			<point x="830" y="613"/>
			<point x="669" y="770"/>
			<point x="464" y="770" type="curve" smooth="yes"/>
			<point x="249" y="770"/>
			<point x="70" y="597"/>
			<point x="70" y="365" type="curve" smooth="yes"/>
			<point x="70" y="147"/>
			<point x="231" y="-10"/>
		</contour>
		<contour>
			<point x="467" y="50" type="curve" smooth="yes"/>
			<point x="325" y="50"/>
			<point x="178" y="169"/>
			<point x="178" y="406" type="curve" smooth="yes"/>
			<point x="178" y="609"/>
			<point x="304" y="710"/>
			<point x="434" y="710" type="curve" smooth="yes"/>
			<point x="576" y="710"/>
			<point x="723" y="591"/>
			<point x="723" y="354" type="curve" smooth="yes"/>
			<point x="723" y="151"/>
			<point x="597" y="50"/>
		</contour>
	</outline>
</glyph>
<glyph name="P" format="2">
	<advance width="674"/>
	<unicode hex="0050"/>
	<anchor x="359" y="0" name="bottom"/>
	<anchor x="359" y="760" name="top"/>
	<outline>
		<contour>
			<point x="153" y="0" type="line" name="_corner00"/>
			<point x="253" y="0" type="line" name="_corner01"/>
			<point x="253" y="300" type="line"/>
			<point x="451" y="287"/>
			<point x="634" y="347"/>
			<point x="634" y="539" type="curve" smooth="yes"/>
			<point x="634" y="650"/>
			<point x="562" y="760"/>
			<point x="360" y="760" type="curve" smooth="yes"/>
			<point x="153" y="760" type="line" name="_corner02"/>
		</contour>
		<contour>
			<point x="253" y="370" type="curve"/>
			<point x="253" y="695" type="line"/>
			<point x="392" y="720"/>
			<point x="529" y="673"/>
			<point x="529" y="520" type="curve" smooth="yes"/>
			<point x="529" y="372"/>
			<point x="383" y="335"/>
		</contour>
	</outline>
</glyph>
<glyph name="Q" format="2">
	<advance width="900"/>
	<unicode hex="0051"/>
	<anchor x="450" y="0" name="bottom"/>
	<anchor x="450" y="760" name="top"/>
	<outline>
		<contour>
			<point x="436" y="-10" type="curve" smooth="yes"/>
			<point x="651" y="-10"/>
			<point x="830" y="163"/>
			<point x="830" y="395" type="curve" smooth="yes"/>
			<point x="830" y="613"/>
			<point x="669" y="770"/>
			<point x="464" y="770" type="curve" smooth="yes"/>
			<point x="249" y="770"/>
			<point x="70" y="597"/>
			<point x="70" y="365" type="curve" smooth="yes"/>
			<point x="70" y="147"/>
			<point x="231" y="-10"/>
		</contour>
		<contour>
			<point x="467" y="50" type="curve" smooth="yes"/>
			<point x="325" y="50"/>
			<point x="178" y="169"/>
			<point x="178" y="406" type="curve" smooth="yes"/>
			<point x="178" y="609"/>
			<point x="304" y="710"/>
			<point x="434" y="710" type="curve" smooth="yes"/>
			<point x="576" y="710"/>
			<point x="723" y="591"/>
			<point x="723" y="354" type="curve" smooth="yes"/>
			<point x="723" y="151"/>
			<point x="597" y="50"/>
		</contour>
		<contour>
			<point x="390" y="44" type="line"/>
			<point x="690" y="-149"/>
			<point x="704" y="-211"/>
			<point x="905" y="-108" type="curve"/>
			<point x="885" y="-69" type="line" name="_corner00"/>
			<point x="779" y="-111"/>
			<point x="768" y="-100"/>
			<point x="496" y="92" type="curve"/>
		</contour>
	</outline>
</glyph>
<glyph name="R" format="2">
	<advance width="758"/>
	<unicode hex="0052"/>
	<anchor x="386" y="0" name="bottom"/>
	<anchor x="336" y="740" name="top"/>
	<outline>
		<contour>
			<point x="153" y="0" type="line" name="_corner02"/>
			<point x="253" y="0" type="line" name="_corner00"/>
			<point x="253" y="313" type="line"/>
			<point x="387" y="322" type="line"/>
			<point x="559" y="0" type="line"/>
			<point x="679" y="0" type="line" name="_corner03"/>
			<point x="477" y="346" type="line"/>
			<point x="704" y="429"/>
			<point x="671" y="760"/>
			<point x="370" y="760" type="curve" smooth="yes"/>
			<point x="153" y="760" type="line" name="_corner01"/>
		</contour>
		<contour>
			<point x="253" y="380" type="curve"/>
			<point x="253" y="695" type="line"/>
			<point x="402" y="720"/>
			<point x="519" y="673"/>
			<point x="519" y="530" type="curve" smooth="yes"/>
			<point x="519" y="392"/>
			<point x="390" y="360"/>
		</contour>
	</outline>
</glyph>
<glyph name="S" format="2">
	<advance width="623"/>
	<unicode hex="0053"/>
	<anchor x="312" y="0" name="bottom"/>
	<anchor x="322" y="750" name="top"/>
	<outline>
		<contour>
			<point x="70" y="227" type="curve"/>
			<point x="84" y="57" type="line"/>
			<point x="146" y="12"/>
			<point x="221" y="-9"/>
			<point x="294" y="-9" type="curve" smooth="yes"/>
			<point x="419" y="-9"/>
			<point x="553" y="75"/>
			<point x="553" y="225" type="curve" smooth="yes"/>
			<point x="553" y="493"/>
			<point x="181" y="398"/>
			<point x="181" y="588" type="curve" smooth="yes"/>
			<point x="181" y="656"/>
			<point x="240" y="707"/>
			<point x="308" y="707" type="curve" smooth="yes"/>
			<point x="368" y="707"/>
			<point x="434" y="669"/>
			<point x="475" y="565" type="curve"/>
			<point x="485" y="557"/>
			<point x="519" y="564"/>
			<point x="517" y="579" type="curve" smooth="yes"/>
			<point x="500" y="724" type="line"/>
			<point x="450" y="754"/>
			<point x="393" y="770"/>
			<point x="337" y="770" type="curve" smooth="yes"/>
			<point x="206" y="770"/>
			<point x="83" y="680"/>
			<point x="83" y="561" type="curve" smooth="yes"/>
			<point x="83" y="296"/>
			<point x="455" y="413"/>
			<point x="455" y="186" type="curve" smooth="yes"/>
			<point x="455" y="110"/>
			<point x="397" y="53"/>
			<point x="314" y="53" type="curve" smooth="yes"/>
			<point x="242" y="53"/>
			<point x="161" y="101"/>
			<point x="117" y="235" type="curve" smooth="yes"/>
			<point x="113" y="248"/>
			<point x="73" y="236"/>
		</contour>
	</outline>
</glyph>
<glyph name="T" format="2">
	<advance width="784"/>
	<unicode hex="0054"/>
	<anchor x="392" y="0" name="bottom"/>
	<anchor x="392" y="380" name="center"/>
	<anchor x="392" y="760" name="top"/>
	<outline>
		<contour>
			<point x="57" y="770" type="line" name="_corner05"/>
			<point x="31" y="590" type="line"/>
			<point x="64" y="576" type="line" name="_corner03"/>
			<point x="131" y="686"/>
			<point x="135" y="704"/>
			<point x="237" y="704" type="curve" smooth="yes"/>
			<point x="324" y="704"/>
			<point x="342" y="699"/>
			<point x="342" y="640" type="curve" smooth="yes"/>
			<point x="342" y="0" type="line" name="_corner00"/>
			<point x="442" y="0" type="line" name="_corner01"/>
			<point x="442" y="640" type="line" smooth="yes"/>
			<point x="442" y="699"/>
			<point x="460" y="704"/>
			<point x="547" y="704" type="curve" smooth="yes"/>
			<point x="649" y="704"/>
			<point x="653" y="686"/>
			<point x="720" y="576" type="curve"/>
			<point x="753" y="590" type="line" name="_corner02"/>
			<point x="727" y="770" type="line" name="_corner04"/>
			<point x="577" y="760" type="line"/>
			<point x="207" y="760" type="line"/>
		</contour>
	</outline>
</glyph>
<glyph name="U" format="2">
	<advance width="896"/>
	<unicode hex="0055"/>
	<anchor x="458" y="0" name="bottom"/>
	<anchor x="574" y="10" name="ogonek"/>
	<anchor x="488" y="760" name="top"/>
	<anchor x="846" y="760" name="topright"/>
	<outline>
		<contour>
			<point x="459" y="-10" type="curve" smooth="yes"/>
			<point x="674" y="-10"/>
			<point x="763" y="133"/>
			<point x="763" y="295" type="curve" smooth="yes"/>
			<point x="763" y="760" type="line" name="_corner02"/>
			<point x="703" y="760" type="line" name="_corner03"/>
			<point x="703" y="295" type="line" smooth="yes"/>
			<point x="703" y="150"/>
			<point x="612" y="70"/>
			<point x="483" y="70" type="curve" smooth="yes"/>
			<point x="365" y="70"/>
			<point x="253" y="113"/>
			<point x="253" y="296" type="curve" smooth="yes"/>
			<point x="253" y="760" type="line" name="_corner00"/>
			<point x="153" y="760" type="line" name="_corner01"/>
			<point x="153" y="305" type="line" smooth="yes"/>
			<point x="153" y="87"/>
			<point x="264" y="-10"/>
		</contour>
	</outline>
</glyph>
<glyph name="V" format="2">
	<advance width="759"/>
	<unicode hex="0056"/>
	<anchor x="375" y="0" name="bottom"/>
	<anchor x="375" y="760" name="top"/>
	<outline>
		<contour>
			<point x="340" y="-10" type="line"/>
			<point x="405" y="-10" type="line"/>
			<point x="725" y="760" type="line" name="_corner03"/>
			<point x="640" y="760" type="line" name="_corner00"/>
			<point x="395" y="109" type="line"/>
			<point x="145" y="760" type="line" name="_corner01"/>
			<point x="35" y="760" type="line" name="_corner02"/>
		</contour>
	</outline>
</glyph>
<glyph name="W" format="2">
	<advance width="1163"/>
	<unicode hex="0057"/>
	<anchor x="582" y="0" name="bottom"/>
	<anchor x="582" y="760" name="top"/>
	<outline>
		<contour>
			<point x="312" y="-10" type="line"/>
			<point x="377" y="-10" type="line"/>
			<point x="652" y="740" type="line"/>
			<point x="587" y="740" type="line"/>
			<point x="362" y="115" type="line"/>
			<point x="147" y="760" type="line" name="_corner00"/>
			<point x="37" y="760" type="line" name="_corner01"/>
		</contour>
		<contour>
			<point x="782" y="-10" type="line"/>
			<point x="847" y="-10" type="line"/>
			<point x="1127" y="760" type="line" name="_corner02"/>
			<point x="1042" y="760" type="line" name="_corner03"/>
			<point x="837" y="115" type="line"/>
			<point x="622" y="760" type="line" name="_corner04"/>
			<point x="522" y="760" type="line" name="_corner05"/>
		</contour>
	</outline>
</glyph>
<glyph name="X" format="2">
	<advance width="946"/>
	<unicode hex="0058"/>
	<anchor x="473" y="0" name="bottom"/>
	<anchor x="473" y="760" name="top"/>
	<outline>
		<contour>
			<point x="610" y="-1" type="curve" smooth="yes"/>
			<point x="690" y="0"/>
			<point x="775" y="0"/>
			<point x="855" y="-1" type="curve" smooth="yes"/>
			<point x="866" y="-1"/>
			<point x="870" y="26"/>
			<point x="862" y="31" type="curve"/>
			<point x="790" y="59"/>
			<point x="790" y="49"/>
			<point x="703" y="165" type="curve" smooth="yes"/>
			<point x="387" y="587" type="line" smooth="yes"/>
			<point x="310" y="690"/>
			<point x="302" y="708"/>
			<point x="357" y="729" type="curve" smooth="yes"/>
			<point x="367" y="733"/>
			<point x="361" y="761"/>
			<point x="351" y="761" type="curve" smooth="yes"/>
			<point x="271" y="760"/>
			<point x="186" y="760"/>
			<point x="106" y="761" type="curve" smooth="yes"/>
			<point x="95" y="761"/>
			<point x="91" y="734"/>
			<point x="99" y="729" type="curve"/>
			<point x="171" y="701"/>
			<point x="176" y="711"/>
			<point x="263" y="595" type="curve" smooth="yes"/>
			<point x="579" y="173" type="line" smooth="yes"/>
			<point x="655" y="71"/>
			<point x="659" y="52"/>
			<point x="604" y="31" type="curve" smooth="yes"/>
			<point x="594" y="27"/>
			<point x="600" y="-1"/>
		</contour>
		<contour>
			<point x="91" y="-1" type="curve" smooth="yes"/>
			<point x="151" y="0"/>
			<point x="236" y="0"/>
			<point x="316" y="-1" type="curve" smooth="yes"/>
			<point x="326" y="-1"/>
			<point x="331" y="26"/>
			<point x="322" y="31" type="curve" smooth="yes"/>
			<point x="275" y="57"/>
			<point x="282" y="69"/>
			<point x="352" y="173" type="curve" smooth="yes"/>
			<point x="485" y="369" type="line"/>
			<point x="433" y="391" type="line"/>
			<point x="253" y="165" type="line" smooth="yes"/>
			<point x="163" y="51"/>
			<point x="136" y="59"/>
			<point x="84" y="31" type="curve"/>
			<point x="76" y="26"/>
			<point x="80" y="-1"/>
		</contour>
		<contour>
			<point x="490" y="369" type="line"/>
			<point x="668" y="595" type="line" smooth="yes"/>
			<point x="759" y="711"/>
			<point x="785" y="701"/>
			<point x="837" y="729" type="curve"/>
			<point x="845" y="734"/>
			<point x="841" y="761"/>
			<point x="830" y="761" type="curve" smooth="yes"/>
			<point x="770" y="760"/>
			<point x="685" y="760"/>
			<point x="605" y="761" type="curve" smooth="yes"/>
			<point x="595" y="761"/>
			<point x="590" y="734"/>
			<point x="599" y="729" type="curve" smooth="yes"/>
			<point x="646" y="703"/>
			<point x="639" y="691"/>
			<point x="569" y="587" type="curve" smooth="yes"/>
			<point x="438" y="391" type="line"/>
		</contour>
	</outline>
</glyph>
<glyph name="Y" format="2">
	<advance width="886"/>
	<unicode hex="0059"/>
	<anchor x="443" y="0" name="bottom"/>
	<anchor x="463" y="740" name="top"/>
	<anchor x="110" y="760" name="topleft"/>
	<outline>
		<contour>
			<point x="84" y="729" type="curve" smooth="yes"/>
			<point x="136" y="701"/>
			<point x="140" y="714"/>
			<point x="223" y="595" type="curve" smooth="yes"/>
			<point x="384" y="365" type="line"/>
			<point x="384" y="0" type="line" name="_corner00"/>
			<point x="484" y="0" type="line" name="_corner01"/>
			<point x="484" y="365" type="line"/>
			<point x="653" y="595" type="line" smooth="yes"/>
			<point x="739" y="712"/>
			<point x="760" y="701"/>
			<point x="802" y="729" type="curve" smooth="yes"/>
			<point x="810" y="734"/>
			<point x="806" y="761"/>
			<point x="795" y="761" type="curve" smooth="yes"/>
			<point x="755" y="760"/>
			<point x="670" y="760"/>
			<point x="590" y="761" type="curve" smooth="yes"/>
			<point x="580" y="761"/>
			<point x="575" y="734"/>
			<point x="584" y="729" type="curve" smooth="yes"/>
			<point x="631" y="703"/>
			<point x="633" y="693"/>
			<point x="564" y="587" type="curve" smooth="yes"/>
			<point x="461" y="429" type="line"/>
			<point x="352" y="587" type="line" smooth="yes"/>
			<point x="279" y="693"/>
			<point x="267" y="708"/>
			<point x="322" y="729" type="curve" smooth="yes"/>
			<point x="332" y="733"/>
			<point x="326" y="761"/>
			<point x="316" y="761" type="curve" smooth="yes"/>
			<point x="236" y="760"/>
			<point x="151" y="760"/>
			<point x="91" y="761" type="curve" smooth="yes"/>
			<point x="80" y="761"/>
			<point x="76" y="734"/>
		</contour>
	</outline>
</glyph>
<glyph name="Z" format="2">
	<advance width="770"/>
	<unicode hex="005A"/>
	<anchor x="385" y="0" name="bottom"/>
	<anchor x="385" y="380" name="center"/>
	<anchor x="405" y="740" name="top"/>
	<outline>
		<contour>
			<point x="200" y="55" type="line"/>
			<point x="700" y="715" type="line"/>
			<point x="683" y="760" type="line"/>
			<point x="135" y="760" type="line" name="_corner01"/>
			<point x="109" y="601" type="line"/>
			<point x="142" y="587" type="line" name="_corner03"/>
			<point x="199" y="677"/>
			<point x="213" y="695"/>
			<point x="385" y="700" type="curve" smooth="yes"/>
			<point x="575" y="705" type="line"/>
			<point x="70" y="45" type="line"/>
			<point x="87" y="0" type="line"/>
			<point x="665" y="0" type="line" name="_corner00"/>
			<point x="691" y="169" type="line"/>
			<point x="658" y="183" type="line" name="_corner02"/>
			<point x="601" y="83"/>
			<point x="587" y="73"/>
			<point x="415" y="65" type="curve" smooth="yes"/>
		</contour>
	</outline>
</glyph>
<glyph name="bracketleft" format="2">
	<advance width="361"/>
	<unicode hex="005B"/>
	<outline>
		<contour>
			<point x="120" y="770" type="line" name="_corner02"/>
			<point x="120" y="-130" type="line" name="_corner03"/>
			<point x="210" y="-140" type="line" name="_corner04"/>
			<point x="210" y="780" type="line" name="_corner05"/>
		</contour>
	</outline>
</glyph>
<glyph name="asciicircum" format="2">
	<advance width="600"/>
	<unicode hex="005E"/>
	<outline>
		<contour>
			<point x="100" y="651" type="curve" smooth="yes"/>
			<point x="271" y="813" type="line" smooth="yes"/>
			<point x="296" y="836"/>
			<point x="304" y="836"/>
			<point x="329" y="813" type="curve" smooth="yes"/>
			<point x="500" y="651" type="line" smooth="yes"/>
			<point x="513" y="639"/>
			<point x="484" y="603"/>
			<point x="470" y="611" type="curve" smooth="yes"/>
			<point x="300" y="716" type="line"/>
			<point x="130" y="611" type="line" smooth="yes"/>
			<point x="116" y="603"/>
			<point x="87" y="639"/>
		</contour>
	</outline>
</glyph>
<glyph name="a" format="2">
	<advance width="527"/>
	<unicode hex="0061"/>
	<anchor x="264" y="0" name="bottom"/>
	<anchor x="474" y="10" name="ogonek"/>
	<anchor x="254" y="500" name="top"/>
	<outline>
		<contour>
			<point x="78" y="430" type="curve"/>
			<point x="99" y="390" type="line" name="_corner00"/>
			<point x="199" y="457"/>
			<point x="324" y="451"/>
			<point x="331" y="321" type="curve" smooth="yes"/>
			<point x="333" y="286" type="line"/>
			<point x="169" y="258" type="line" smooth="yes"/>
			<point x="-19" y="226"/>
			<point x="26" y="-10"/>
			<point x="177" y="-10" type="curve" smooth="yes"/>
			<point x="228" y="-10"/>
			<point x="285" y="33"/>
			<point x="333" y="75" type="curve"/>
			<point x="352" y="-35"/>
			<point x="441" y="-23"/>
			<point x="516" y="35" type="curve"/>
			<point x="501" y="70" type="line" name="_corner01"/>
			<point x="450" y="44"/>
			<point x="408" y="55"/>
			<point x="410" y="110" type="curve" smooth="yes"/>
			<point x="418" y="338" type="line" smooth="yes"/>
			<point x="425" y="529"/>
			<point x="246" y="559"/>
		</contour>
		<contour>
			<point x="210" y="212" type="curve" smooth="yes"/>
			<point x="333" y="240" type="line"/>
			<point x="331" y="121" type="line"/>
			<point x="296" y="89"/>
			<point x="241" y="65"/>
			<point x="202" y="65" type="curve" smooth="yes"/>
			<point x="113" y="65"/>
			<point x="103" y="188"/>
		</contour>
	</outline>
</glyph>
<glyph name="c" format="2">
	<advance width="504"/>
	<unicode hex="0063"/>
	<anchor x="252" y="0" name="bottom"/>
	<anchor x="252" y="500" name="top"/>
	<outline>
		<contour>
			<point x="268" y="-10" type="curve" smooth="yes"/>
			<point x="323" y="-10"/>
			<point x="389" y="12"/>
			<point x="465" y="70" type="curve"/>
			<point x="444" y="110" type="line" name="_corner00"/>
			<point x="267" y="24"/>
			<point x="150" y="81"/>
			<point x="150" y="279" type="curve" smooth="yes"/>
			<point x="150" y="374"/>
			<point x="190" y="440"/>
			<point x="270" y="440" type="curve" smooth="yes"/>
			<point x="328" y="440"/>
			<point x="368" y="407"/>
			<point x="410" y="370" type="curve" smooth="yes"/>
			<point x="437" y="346"/>
			<point x="471" y="449"/>
			<point x="450" y="470" type="curve" smooth="yes"/>
			<point x="430" y="490"/>
			<point x="376" y="511"/>
			<point x="311" y="511" type="curve" smooth="yes"/>
			<point x="188" y="511"/>
			<point x="55" y="393"/>
			<point x="55" y="232" type="curve" smooth="yes"/>
			<point x="55" y="97"/>
			<point x="145" y="-10"/>
		</contour>
	</outline>
</glyph>
<glyph name="d" format="2">
	<advance width="630"/>
	<unicode hex="0064"/>
	<anchor x="304" y="0" name="bottom"/>
	<anchor x="304" y="250" name="center"/>
	<anchor x="304" y="800" name="top"/>
	<anchor x="568" y="790" name="topright"/>
	<outline>
		<contour>
			<point x="50" y="232" type="curve" smooth="yes"/>
			<point x="50" y="100"/>
			<point x="110" y="-10"/>
			<point x="244" y="-10" type="curve" smooth="yes"/>
			<point x="295" y="-10"/>
			<point x="386" y="33"/>
			<point x="475" y="140" type="curve"/>
			<point x="436" y="150" type="line"/>
			<point x="386" y="95"/>
			<point x="333" y="69"/>
			<point x="285" y="69" type="curve" smooth="yes"/>
			<point x="181" y="69"/>
			<point x="140" y="147"/>
			<point x="140" y="279" type="curve" smooth="yes"/>
			<point x="140" y="390"/>
			<point x="199" y="438"/>
			<point x="276" y="438" type="curve" smooth="yes"/>
			<point x="327" y="438"/>
			<point x="383" y="418"/>
			<point x="430" y="380" type="curve"/>
			<point x="455" y="465" type="line"/>
			<point x="430" y="480"/>
			<point x="376" y="511"/>
			<point x="301" y="511" type="curve" smooth="yes"/>
			<point x="188" y="511"/>
			<point x="50" y="393"/>
		</contour>
		<contour>
			<point x="390" y="770" type="curve" name="_corner00"/>
			<point x="405" y="697"/>
			<point x="426" y="610"/>
			<point x="426" y="495" type="curve" smooth="yes"/>
			<point x="426" y="-10" type="line" name="_corner03"/>
			<point x="511" y="15" type="line" name="_corner02"/>
			<point x="511" y="530" type="line" smooth="yes"/>
			<point x="511" y="625"/>
			<point x="516" y="720"/>
			<point x="521" y="815" type="curve" name="_corner01"/>
			<point x="475" y="798"/>
			<point x="436" y="781"/>
		</contour>
	</outline>
</glyph>
<glyph name="e" format="2">
	<advance width="532"/>
	<unicode hex="0065"/>
	<anchor x="266" y="0" name="bottom"/>
	<anchor x="459" y="60" name="ogonek"/>
	<anchor x="280" y="500" name="top"/>
	<outline>
		<contour>
			<point x="60" y="232" type="curve" smooth="yes"/>
			<point x="60" y="77"/>
			<point x="155" y="-10"/>
			<point x="278" y="-10" type="curve" smooth="yes"/>
			<point x="333" y="-10"/>
			<point x="399" y="12"/>
			<point x="475" y="70" type="curve"/>
			<point x="454" y="110" type="line" name="_corner01"/>
			<point x="277" y="9"/>
			<point x="149" y="91"/>
			<point x="149" y="283" type="curve" smooth="yes"/>
			<point x="149" y="501"/>
			<point x="370" y="483"/>
			<point x="370" y="325" type="curve"/>
			<point x="140" y="318" type="line"/>
			<point x="143" y="273" type="line"/>
			<point x="476" y="273" type="line" name="_corner00"/>
			<point x="476" y="444"/>
			<point x="394" y="510"/>
			<point x="290" y="511" type="curve" smooth="yes"/>
			<point x="183" y="512"/>
			<point x="60" y="404"/>
		</contour>
	</outline>
</glyph>
<glyph name="f" format="2">
	<advance width="358"/>
	<unicode hex="0066"/>
	<anchor x="179" y="0" name="bottom"/>
	<anchor x="179" y="800" name="top"/>
	<outline>
		<contour>
			<point x="122" y="517" type="curve" smooth="yes"/>
			<point x="122" y="0" type="line" name="_corner00"/>
			<point x="207" y="0" type="line" name="_corner01"/>
			<point x="207" y="559" type="line" smooth="yes"/>
			<point x="207" y="695"/>
			<point x="261" y="765"/>
			<point x="418" y="682" type="curve" smooth="yes"/>
			<point x="449" y="666"/>
			<point x="485" y="768"/>
			<point x="458" y="783" type="curve" smooth="yes"/>
			<point x="360" y="837"/>
			<point x="122" y="786"/>
		</contour>
		<contour>
			<point x="41" y="480" type="line"/>
			<point x="41" y="430" type="line" name="_corner02"/>
			<point x="321" y="430" type="line"/>
			<point x="321" y="490" type="line" name="_corner03"/>
			<point x="131" y="490" type="line"/>
		</contour>
	</outline>
</glyph>
<glyph name="i" format="2">
	<advance width="335"/>
	<unicode hex="0069"/>
	<anchor x="175" y="0" name="bottom"/>
	<outline>
		<contour>
			<point x="172" y="625" type="curve"/>
			<point x="205" y="640"/>
			<point x="227" y="676"/>
			<point x="227" y="700" type="curve"/>
			<point x="212" y="734"/>
			<point x="175" y="755"/>
			<point x="152" y="755" type="curve"/>
			<point x="119" y="740"/>
			<point x="97" y="704"/>
			<point x="97" y="680" type="curve"/>
			<point x="112" y="646"/>
			<point x="149" y="625"/>
		</contour>
		<contour>
			<point x="127" y="0" type="line" name="_corner03"/>
			<point x="212" y="0" type="line" name="_corner00"/>
			<point x="212" y="515" type="line" name="_corner01"/>
			<point x="182" y="503"/>
			<point x="158" y="492"/>
			<point x="127" y="480" type="curve" name="_corner02"/>
		</contour>
	</outline>
</glyph>
<glyph name="j" format="2">
	<advance width="309"/>
	<unicode hex="006A"/>
	<outline>
		<contour>
			<point x="25" y="-222" type="curve"/>
			<point x="46" y="-260" type="line" name="_corner02"/>
			<point x="171" y="-193"/>
			<point x="212" y="-138"/>
			<point x="212" y="-27" type="curve" smooth="yes"/>
			<point x="212" y="515" type="line" name="_corner00"/>
			<point x="182" y="503"/>
			<point x="158" y="492"/>
			<point x="127" y="480" type="curve" name="_corner01"/>
			<point x="127" y="-29" type="line" smooth="yes"/>
			<point x="127" y="-124"/>
			<point x="112" y="-167"/>
		</contour>
		<contour>
			<point x="169" y="625" type="curve"/>
			<point x="202" y="640"/>
			<point x="224" y="676"/>
			<point x="224" y="700" type="curve"/>
			<point x="209" y="734"/>
			<point x="172" y="755"/>
			<point x="149" y="755" type="curve"/>
			<point x="116" y="740"/>
			<point x="94" y="704"/>
			<point x="94" y="680" type="curve"/>
			<point x="109" y="646"/>
			<point x="146" y="625"/>
		</contour>
	</outline>
</glyph>
<glyph name="k" format="2">
	<advance width="571"/>
	<unicode hex="006B"/>
	<anchor x="311" y="0" name="bottom"/>
	<anchor x="286" y="800" name="top"/>
	<outline>
		<contour>
			<point x="392" y="0" type="line"/>
			<point x="512" y="0" type="line" name="_corner04"/>
			<point x="308" y="290" type="line"/>
			<point x="522" y="490" type="line" name="_corner05"/>
			<point x="427" y="490" type="line" name="_corner06"/>
			<point x="240" y="295" type="line" smooth="yes"/>
			<point x="211" y="265"/>
			<point x="217" y="271"/>
			<point x="181" y="270" type="curve"/>
			<point x="170" y="229" type="line"/>
			<point x="245" y="228"/>
			<point x="241" y="234"/>
			<point x="259" y="206" type="curve" smooth="yes"/>
		</contour>
		<contour>
			<point x="113" y="0" type="line" name="_corner00"/>
			<point x="192" y="0" type="line" name="_corner01"/>
			<point x="198" y="530" type="line" smooth="yes"/>
			<point x="199" y="625"/>
			<point x="203" y="720"/>
			<point x="208" y="815" type="curve" name="_corner02"/>
			<point x="162" y="798"/>
			<point x="123" y="781"/>
			<point x="77" y="770" type="curve" name="_corner03"/>
			<point x="92" y="697"/>
			<point x="113" y="610"/>
			<point x="113" y="435" type="curve" smooth="yes"/>
		</contour>
	</outline>
</glyph>
<glyph name="l" format="2">
	<advance width="321"/>
	<unicode hex="006C"/>
	<anchor x="161" y="0" name="bottom"/>
	<anchor x="161" y="400" name="center"/>
	<anchor x="161" y="800" name="top"/>
	<anchor x="241" y="800" name="topright"/>
	<outline>
		<contour>
			<point x="77" y="770" type="curve" name="_corner03"/>
			<point x="92" y="697"/>
			<point x="113" y="610"/>
			<point x="113" y="435" type="curve" smooth="yes"/>
			<point x="113" y="0" type="line" name="_corner02"/>
			<point x="198" y="0" type="line" name="_corner00"/>
			<point x="198" y="530" type="line" smooth="yes"/>
			<point x="198" y="625"/>
			<point x="203" y="720"/>
			<point x="208" y="815" type="curve" name="_corner01"/>
			<point x="162" y="798"/>
			<point x="123" y="781"/>
		</contour>
	</outline>
</glyph>
<glyph name="m" format="2">
	<advance width="966"/>
	<unicode hex="006D"/>
	<anchor x="490" y="0" name="bottom"/>
	<anchor x="490" y="500" name="top"/>
	<outline>
		<contour>
			<point x="127" y="0" type="line" name="_corner07"/>
			<point x="212" y="0" type="line" name="_corner04"/>
			<point x="212" y="515" type="line" name="_corner05"/>
			<point x="182" y="503"/>
			<point x="158" y="492"/>
			<point x="127" y="480" type="curve" name="_corner06"/>
		</contour>
		<contour>
			<point x="452" y="0" type="line" name="_corner01"/>
			<point x="537" y="0" type="line" name="_corner00"/>
			<point x="537" y="340" type="line" smooth="yes"/>
			<point x="537" y="424"/>
			<point x="497" y="511"/>
			<point x="394" y="511" type="curve" smooth="yes"/>
			<point x="319" y="511"/>
			<point x="248" y="459"/>
			<point x="162" y="381" type="curve"/>
			<point x="186" y="360" type="line"/>
			<point x="359" y="493"/>
			<point x="452" y="426"/>
			<point x="452" y="300" type="curve" smooth="yes"/>
		</contour>
		<contour>
			<point x="777" y="0" type="line" name="_corner03"/>
			<point x="857" y="0" type="line" name="_corner02"/>
			<point x="867" y="340" type="line" smooth="yes"/>
			<point x="869" y="424"/>
			<point x="822" y="511"/>
			<point x="719" y="511" type="curve" smooth="yes"/>
			<point x="644" y="511"/>
			<point x="573" y="459"/>
			<point x="487" y="381" type="curve"/>
			<point x="511" y="360" type="line"/>
			<point x="684" y="493"/>
			<point x="777" y="426"/>
			<point x="777" y="300" type="curve" smooth="yes"/>
		</contour>
	</outline>
</glyph>
<glyph name="n" format="2">
	<advance width="641"/>
	<unicode hex="006E"/>
	<anchor x="328" y="0" name="bottom"/>
	<anchor x="338" y="500" name="top"/>
	<outline>
		<contour>
			<point x="452" y="0" type="line" name="_corner01"/>
			<point x="532" y="0" type="line" name="_corner00"/>
			<point x="542" y="340" type="line" smooth="yes"/>
			<point x="544" y="424"/>
			<point x="497" y="511"/>
			<point x="394" y="511" type="curve" smooth="yes"/>
			<point x="319" y="511"/>
			<point x="248" y="459"/>
			<point x="162" y="381" type="curve"/>
			<point x="186" y="360" type="line"/>
			<point x="359" y="493"/>
			<point x="452" y="426"/>
			<point x="452" y="300" type="curve" smooth="yes"/>
		</contour>
		<contour>
			<point x="127" y="0" type="line" name="_corner05"/>
			<point x="212" y="0" type="line" name="_corner02"/>
			<point x="212" y="515" type="line" name="_corner03"/>
			<point x="182" y="503"/>
			<point x="158" y="492"/>
			<point x="127" y="480" type="curve" name="_corner04"/>
		</contour>
	</outline>
</glyph>
<glyph name="o" format="2">
	<advance width="582"/>
	<unicode hex="006F"/>
	<anchor x="291" y="0" name="bottom"/>
	<anchor x="291" y="250" name="center"/>
	<anchor x="524" y="10" name="ogonek"/>
	<anchor x="291" y="500" name="top"/>
	<anchor x="562" y="500" name="topright"/>
	<outline>
		<contour>
			<point x="273" y="-10" type="curve" smooth="yes"/>
			<point x="403" y="-10"/>
			<point x="532" y="112"/>
			<point x="532" y="268" type="curve" smooth="yes"/>
			<point x="532" y="403"/>
			<point x="442" y="510"/>
			<point x="309" y="510" type="curve" smooth="yes"/>
			<point x="175" y="510"/>
			<point x="50" y="384"/>
			<point x="50" y="232" type="curve" smooth="yes"/>
			<point x="50" y="97"/>
			<point x="140" y="-10"/>
		</contour>
		<contour>
			<point x="311" y="60" type="curve" smooth="yes"/>
			<point x="208" y="60"/>
			<point x="145" y="135"/>
			<point x="145" y="279" type="curve" smooth="yes"/>
			<point x="145" y="374"/>
			<point x="185" y="440"/>
			<point x="271" y="440" type="curve" smooth="yes"/>
			<point x="374" y="440"/>
			<point x="437" y="365"/>
			<point x="437" y="221" type="curve" smooth="yes"/>
			<point x="437" y="126"/>
			<point x="397" y="60"/>
		</contour>
	</outline>
</glyph>
<glyph name="p" format="2">
	<advance width="585"/>
	<unicode hex="0070"/>
	<anchor x="293" y="0" name="bottom"/>
	<anchor x="293" y="500" name="top"/>
	<outline>
		<contour>
			<point x="532" y="268" type="curve" smooth="yes"/>
			<point x="532" y="400"/>
			<point x="472" y="510"/>
			<point x="338" y="510" type="curve" smooth="yes"/>
			<point x="267" y="510"/>
			<point x="186" y="467"/>
			<point x="107" y="360" type="curve"/>
			<point x="146" y="350" type="line"/>
			<point x="196" y="405"/>
			<point x="249" y="431"/>
			<point x="297" y="431" type="curve" smooth="yes"/>
			<point x="401" y="431"/>
			<point x="446" y="353"/>
			<point x="446" y="221" type="curve" smooth="yes"/>
			<point x="446" y="100"/>
			<point x="371" y="57"/>
			<point x="295" y="57" type="curve" smooth="yes"/>
			<point x="241" y="57"/>
			<point x="186" y="78"/>
			<point x="152" y="110" type="curve"/>
			<point x="127" y="25" type="line"/>
			<point x="152" y="10"/>
			<point x="206" y="-11"/>
			<point x="281" y="-11" type="curve" smooth="yes"/>
			<point x="394" y="-11"/>
			<point x="532" y="107"/>
		</contour>
		<contour>
			<point x="98" y="-250" type="line" name="_corner03"/>
			<point x="183" y="-250" type="line" name="_corner00"/>
			<point x="183" y="515" type="line" name="_corner01"/>
			<point x="153" y="503"/>
			<point x="129" y="492"/>
			<point x="98" y="480" type="curve" name="_corner02"/>
		</contour>
	</outline>
</glyph>
<glyph name="r" format="2">
	<advance width="423"/>
	<unicode hex="0072"/>
	<anchor x="212" y="0" name="bottom"/>
	<anchor x="212" y="500" name="top"/>
	<outline>
		<contour>
			<point x="123" y="0" type="line" name="_corner03"/>
			<point x="208" y="0" type="line" name="_corner00"/>
			<point x="208" y="304" type="line" smooth="yes"/>
			<point x="208" y="397"/>
			<point x="261" y="424"/>
			<point x="366" y="392" type="curve" smooth="yes"/>
			<point x="382" y="387"/>
			<point x="416" y="479"/>
			<point x="381" y="497" type="curve" smooth="yes"/>
			<point x="310" y="533"/>
			<point x="302" y="497"/>
			<point x="208" y="407" type="curve"/>
			<point x="208" y="520" type="line" name="_corner01"/>
			<point x="178" y="508"/>
			<point x="154" y="497"/>
			<point x="123" y="485" type="curve" name="_corner02"/>
		</contour>
	</outline>
</glyph>
<glyph name="s" format="2">
	<advance width="462"/>
	<unicode hex="0073"/>
	<anchor x="231" y="0" name="bottom"/>
	<anchor x="231" y="500" name="top"/>
	<outline>
		<contour>
			<point x="60" y="135" type="curve" smooth="yes"/>
			<point x="79" y="15" type="line"/>
			<point x="234" y="-36"/>
			<point x="402" y="-8"/>
			<point x="402" y="137" type="curve" smooth="yes"/>
			<point x="402" y="215"/>
			<point x="348" y="239"/>
			<point x="294" y="267" type="curve" smooth="yes"/>
			<point x="202" y="315"/>
			<point x="156" y="345"/>
			<point x="156" y="392" type="curve" smooth="yes"/>
			<point x="156" y="431"/>
			<point x="190" y="454"/>
			<point x="226" y="454" type="curve" smooth="yes"/>
			<point x="267" y="454"/>
			<point x="316" y="426"/>
			<point x="345" y="360" type="curve" smooth="yes"/>
			<point x="348" y="350"/>
			<point x="387" y="356"/>
			<point x="385" y="367" type="curve" smooth="yes"/>
			<point x="367" y="490" type="line"/>
			<point x="339" y="500"/>
			<point x="298" y="510"/>
			<point x="255" y="510" type="curve" smooth="yes"/>
			<point x="163" y="510"/>
			<point x="71" y="458"/>
			<point x="71" y="358" type="curve" smooth="yes"/>
			<point x="71" y="293"/>
			<point x="122" y="265"/>
			<point x="165" y="239" type="curve" smooth="yes"/>
			<point x="256" y="184"/>
			<point x="311" y="170"/>
			<point x="311" y="115" type="curve" smooth="yes"/>
			<point x="311" y="35"/>
			<point x="169" y="-6"/>
			<point x="97" y="148" type="curve" smooth="yes"/>
			<point x="92" y="157"/>
			<point x="58" y="149"/>
		</contour>
	</outline>
</glyph>
<glyph name="t" format="2">
	<advance width="401"/>
	<unicode hex="0074"/>
	<anchor x="231" y="0" name="bottom"/>
	<anchor x="201" y="250" name="center"/>
	<anchor x="201" y="500" name="top"/>
	<anchor x="241" y="760" name="topright"/>
	<outline>
		<contour>
			<point x="115" y="126" type="curve" smooth="yes"/>
			<point x="119" y="-14"/>
			<point x="228" y="-43"/>
			<point x="370" y="29" type="curve"/>
			<point x="356" y="69" type="line" name="_corner00"/>
			<point x="254" y="37"/>
			<point x="210" y="60"/>
			<point x="210" y="163" type="curve" smooth="yes"/>
			<point x="210" y="253"/>
			<point x="210" y="340"/>
			<point x="215" y="430" type="curve"/>
			<point x="335" y="430" type="line"/>
			<point x="345" y="500" type="line" name="_corner01"/>
			<point x="210" y="480" type="line"/>
			<point x="215" y="611" type="line" smooth="yes"/>
			<point x="216" y="626"/>
			<point x="161" y="616"/>
			<point x="157" y="601" type="curve" smooth="yes"/>
			<point x="133" y="500"/>
			<point x="111" y="496"/>
			<point x="40" y="470" type="curve" smooth="yes"/>
			<point x="30" y="466"/>
			<point x="35" y="430"/>
			<point x="45" y="430" type="curve"/>
			<point x="123" y="430" type="line"/>
			<point x="118" y="331"/>
			<point x="111" y="249"/>
		</contour>
	</outline>
</glyph>
<glyph name="u" format="2">
	<advance width="632"/>
	<unicode hex="0075"/>
	<anchor x="316" y="0" name="bottom"/>
	<anchor x="493" y="5" name="ogonek"/>
	<anchor x="316" y="500" name="top"/>
	<anchor x="612" y="500" name="topright"/>
	<outline>
		<contour>
			<point x="249" y="-11" type="curve" smooth="yes"/>
			<point x="324" y="-11"/>
			<point x="395" y="41"/>
			<point x="481" y="119" type="curve"/>
			<point x="457" y="140" type="line"/>
			<point x="284" y="7"/>
			<point x="187" y="74"/>
			<point x="191" y="200" type="curve" smooth="yes"/>
			<point x="201" y="510" type="line" name="_corner04"/>
			<point x="116" y="495" type="line" name="_corner03"/>
			<point x="101" y="170" type="line" smooth="yes"/>
			<point x="97" y="86"/>
			<point x="146" y="-11"/>
		</contour>
		<contour>
			<point x="426" y="-15" type="line" name="_corner01"/>
			<point x="511" y="10" type="line" name="_corner02"/>
			<point x="521" y="500" type="line"/>
			<point x="511" y="508" type="line"/>
			<point x="436" y="495" type="line" name="_corner00"/>
		</contour>
	</outline>
</glyph>
<glyph name="v" format="2">
	<advance width="561"/>
	<unicode hex="0076"/>
	<anchor x="281" y="0" name="bottom"/>
	<anchor x="281" y="500" name="top"/>
	<outline>
		<contour>
			<point x="315" y="0" type="line"/>
			<point x="355" y="106" type="line"/>
			<point x="510" y="490" type="line" name="_corner03"/>
			<point x="425" y="490" type="line" name="_corner00"/>
			<point x="303" y="94" type="line"/>
			<point x="157" y="490" type="line" name="_corner01"/>
			<point x="57" y="490" type="line" name="_corner02"/>
			<point x="245" y="-10" type="line" name="_corner04"/>
		</contour>
	</outline>
</glyph>
<glyph name="w" format="2">
	<advance width="861"/>
	<unicode hex="0077"/>
	<anchor x="431" y="0" name="bottom"/>
	<anchor x="441" y="490" name="top"/>
	<outline>
		<contour>
			<point x="310" y="0" type="line"/>
			<point x="343" y="87" type="line"/>
			<point x="495" y="490" type="line"/>
			<point x="420" y="490" type="line" name="_corner01"/>
			<point x="293" y="84" type="line"/>
			<point x="152" y="490" type="line" name="_corner03"/>
			<point x="52" y="490" type="line" name="_corner00"/>
			<point x="240" y="-10" type="line" name="_corner06"/>
		</contour>
		<contour>
			<point x="630" y="0" type="line"/>
			<point x="665" y="97" type="line"/>
			<point x="805" y="490" type="line" name="_corner04"/>
			<point x="720" y="490" type="line" name="_corner02"/>
			<point x="613" y="89" type="line"/>
			<point x="462" y="490" type="line" name="_corner05"/>
			<point x="435" y="490" type="line"/>
			<point x="402" y="410" type="line"/>
			<point x="560" y="-10" type="line" name="_corner07"/>
		</contour>
	</outline>
</glyph>
<glyph name="y" format="2">
	<advance width="546"/>
	<unicode hex="0079"/>
	<anchor x="273" y="0" name="bottom"/>
	<anchor x="273" y="470" name="top"/>
	<outline>
		<contour>
			<point x="264" y="-83" type="line"/>
			<point x="314" y="25" type="line"/>
			<point x="332" y="70" type="line"/>
			<point x="495" y="490" type="line" name="_corner03"/>
			<point x="410" y="490" type="line" name="_corner00"/>
			<point x="288" y="94" type="line"/>
			<point x="142" y="490" type="line" name="_corner01"/>
			<point x="42" y="490" type="line" name="_corner02"/>
		</contour>
		<contour>
			<point x="213" y="-260" type="curve" smooth="yes"/>
			<point x="332" y="70" type="line"/>
			<point x="261" y="11" type="line"/>
			<point x="98" y="-233" type="line" smooth="yes"/>
			<point x="80" y="-261"/>
			<point x="204" y="-285"/>
		</contour>
	</outline>
</glyph>
<glyph name="z" format="2">
	<advance width="525"/>
	<unicode hex="007A"/>
	<anchor x="263" y="0" name="bottom"/>
	<anchor x="263" y="250" name="center"/>
	<anchor x="253" y="460" name="top"/>
	<outline>
		<contour>
			<point x="85" y="490" type="line"/>
			<point x="75" y="415" type="line" name="_corner01"/>
			<point x="345" y="440" type="line"/>
			<point x="55" y="40" type="line"/>
			<point x="65" y="0" type="line"/>
			<point x="445" y="0" type="line"/>
			<point x="455" y="75" type="line" name="_corner00"/>
			<point x="170" y="50" type="line"/>
			<point x="465" y="450" type="line"/>
			<point x="455" y="490" type="line"/>
		</contour>
	</outline>
</glyph>
<glyph name="braceleft" format="2">
	<advance width="368"/>
	<unicode hex="007B"/>
	<outline>
		<contour>
			<point x="54" y="335" type="curve"/>
			<point x="134" y="338"/>
			<point x="144" y="402"/>
			<point x="144" y="435" type="curve" smooth="yes"/>
			<point x="144" y="645" type="line"/>
			<point x="144" y="748"/>
			<point x="191" y="785"/>
			<point x="343" y="812" type="curve"/>
			<point x="353" y="814"/>
			<point x="361" y="773"/>
			<point x="351" y="770" type="curve"/>
			<point x="278" y="756"/>
			<point x="234" y="746"/>
			<point x="234" y="670" type="curve"/>
			<point x="234" y="445" type="line" smooth="yes"/>
			<point x="234" y="382"/>
			<point x="204" y="328"/>
			<point x="124" y="315" type="curve" name="_corner00"/>
			<point x="204" y="302"/>
			<point x="234" y="248"/>
			<point x="234" y="185" type="curve" smooth="yes"/>
			<point x="234" y="-40" type="line"/>
			<point x="234" y="-116"/>
			<point x="278" y="-126"/>
			<point x="351" y="-140" type="curve"/>
			<point x="361" y="-143"/>
			<point x="353" y="-184"/>
			<point x="343" y="-182" type="curve"/>
			<point x="191" y="-155"/>
			<point x="144" y="-118"/>
			<point x="144" y="-15" type="curve"/>
			<point x="144" y="195" type="line" smooth="yes"/>
			<point x="144" y="228"/>
			<point x="134" y="292"/>
			<point x="54" y="295" type="curve"/>
			<point x="44" y="295"/>
			<point x="44" y="335"/>
		</contour>
	</outline>
</glyph>
<glyph name="bar" format="2">
	<advance width="260"/>
	<unicode hex="007C"/>
	<outline>
		<contour>
			<point x="160" y="760" type="line"/>
			<point x="100" y="760" type="line" name="_corner00"/>
			<point x="100" y="-250" type="line"/>
			<point x="160" y="-250" type="line" name="_corner01"/>
		</contour>
	</outline>
</glyph>
<glyph name="asciitilde" format="2">
	<advance width="600"/>
	<unicode hex="007E"/>
	<outline>
		<contour>
			<point x="300" y="317" type="curve" smooth="yes"/>
			<point x="211" y="345"/>
			<point x="120" y="367"/>
			<point x="36" y="225" type="curve" smooth="yes"/>
			<point x="30" y="216"/>
			<point x="69" y="186"/>
			<point x="76" y="195" type="curve" smooth="yes"/>
			<point x="144" y="281"/>
			<point x="216" y="233"/>
			<point x="300" y="210" type="curve" smooth="yes"/>
			<point x="389" y="182"/>
			<point x="480" y="160"/>
			<point x="564" y="302" type="curve" smooth="yes"/>
			<point x="570" y="311"/>
			<point x="531" y="341"/>
			<point x="524" y="332" type="curve" smooth="yes"/>
			<point x="456" y="246"/>
			<point x="384" y="294"/>
		</contour>
	</outline>
</glyph>
<glyph name="cent" format="2">
	<advance width="600"/>
	<unicode hex="00A2"/>
	<outline>
		<contour>
			<point x="288" y="-10" type="curve" smooth="yes"/>
			<point x="343" y="-10"/>
			<point x="409" y="12"/>
			<point x="485" y="70" type="curve"/>
			<point x="464" y="110" type="line" name="_corner00"/>
			<point x="287" y="24"/>
			<point x="150" y="81"/>
			<point x="150" y="279" type="curve" smooth="yes"/>
			<point x="150" y="374"/>
			<point x="210" y="440"/>
			<point x="290" y="440" type="curve" smooth="yes"/>
			<point x="348" y="440"/>
			<point x="388" y="407"/>
			<point x="430" y="370" type="curve" smooth="yes"/>
			<point x="457" y="346"/>
			<point x="491" y="449"/>
			<point x="470" y="470" type="curve" smooth="yes"/>
			<point x="450" y="490"/>
			<point x="396" y="511"/>
			<point x="331" y="511" type="curve" smooth="yes"/>
			<point x="208" y="511"/>
			<point x="55" y="393"/>
			<point x="55" y="232" type="curve" smooth="yes"/>
			<point x="55" y="97"/>
			<point x="165" y="-10"/>
		</contour>
		<contour>
			<point x="320" y="640" type="line"/>
			<point x="260" y="640" type="line" name="_corner01"/>
			<point x="260" y="-150" type="line"/>
			<point x="320" y="-150" type="line" name="_corner02"/>
		</contour>
	</outline>
</glyph>
<glyph name="sterling" format="2">
	<advance width="605"/>
	<unicode hex="00A3"/>
	<outline>
		<contour>
			<point x="31" y="400" type="line" name="_corner02"/>
			<point x="431" y="400" type="line"/>
			<point x="431" y="460" type="line" name="_corner03"/>
			<point x="197" y="460" type="line"/>
			<point x="177" y="653"/>
			<point x="288" y="760"/>
			<point x="469" y="631" type="curve" smooth="yes"/>
			<point x="496" y="611"/>
			<point x="530" y="714"/>
			<point x="508" y="731" type="curve" smooth="yes"/>
			<point x="369" y="839"/>
			<point x="104" y="728"/>
			<point x="104" y="460" type="curve"/>
			<point x="31" y="460" type="line"/>
		</contour>
		<contour>
			<point x="431" y="330" type="line" name="_corner01"/>
			<point x="31" y="330" type="line"/>
			<point x="31" y="270" type="line" name="_corner00"/>
			<point x="131" y="270" type="line"/>
			<point x="138" y="201"/>
			<point x="140" y="139"/>
			<point x="40" y="25" type="curve" smooth="yes"/>
			<point x="32" y="16"/>
			<point x="68" y="-20"/>
			<point x="76" y="-12" type="curve" smooth="yes"/>
			<point x="223" y="150"/>
			<point x="405" y="-166"/>
			<point x="564" y="102" type="curve" smooth="yes"/>
			<point x="570" y="111"/>
			<point x="531" y="141"/>
			<point x="524" y="132" type="curve" smooth="yes"/>
			<point x="423" y="4"/>
			<point x="316" y="171"/>
			<point x="172" y="115" type="curve"/>
			<point x="201" y="173"/>
			<point x="212" y="223"/>
			<point x="214" y="270" type="curve"/>
			<point x="431" y="270" type="line"/>
		</contour>
	</outline>
</glyph>
<glyph name="yen" format="2">
	<advance width="706"/>
	<unicode hex="00A5"/>
	<outline>
		<contour>
			<point x="141" y="350" type="line" name="_corner02"/>
			<point x="551" y="350" type="line"/>
			<point x="551" y="410" type="line" name="_corner03"/>
			<point x="427" y="410" type="line"/>
			<point x="563" y="595" type="line" smooth="yes"/>
			<point x="649" y="712"/>
			<point x="670" y="701"/>
			<point x="712" y="729" type="curve" smooth="yes"/>
			<point x="720" y="734"/>
			<point x="716" y="761"/>
			<point x="705" y="761" type="curve" smooth="yes"/>
			<point x="665" y="760"/>
			<point x="580" y="760"/>
			<point x="500" y="761" type="curve" smooth="yes"/>
			<point x="490" y="761"/>
			<point x="485" y="734"/>
			<point x="494" y="729" type="curve" smooth="yes"/>
			<point x="541" y="703"/>
			<point x="543" y="693"/>
			<point x="474" y="587" type="curve" smooth="yes"/>
			<point x="371" y="429" type="line"/>
			<point x="262" y="587" type="line" smooth="yes"/>
			<point x="189" y="693"/>
			<point x="177" y="708"/>
			<point x="232" y="729" type="curve" smooth="yes"/>
			<point x="242" y="733"/>
			<point x="236" y="761"/>
			<point x="226" y="761" type="curve" smooth="yes"/>
			<point x="146" y="760"/>
			<point x="61" y="760"/>
			<point x="1" y="761" type="curve" smooth="yes"/>
			<point x="-10" y="761"/>
			<point x="-14" y="734"/>
			<point x="-6" y="729" type="curve" smooth="yes"/>
			<point x="46" y="701"/>
			<point x="50" y="714"/>
			<point x="133" y="595" type="curve" smooth="yes"/>
			<point x="263" y="410" type="line"/>
			<point x="141" y="410" type="line"/>
		</contour>
		<contour>
			<point x="551" y="280" type="line" name="_corner04"/>
			<point x="141" y="280" type="line"/>
			<point x="141" y="220" type="line" name="_corner05"/>
			<point x="294" y="220" type="line"/>
			<point x="294" y="0" type="line" name="_corner00"/>
			<point x="394" y="0" type="line" name="_corner01"/>
			<point x="394" y="220" type="line"/>
			<point x="551" y="220" type="line"/>
		</contour>
	</outline>
</glyph>
<glyph name="section" format="2">
	<advance width="600"/>
	<unicode hex="00A7"/>
	<outline>
		<contour>
			<point x="228" y="231" type="line"/>
			<point x="310" y="231"/>
			<point x="412" y="276"/>
			<point x="412" y="377" type="curve" smooth="yes"/>
			<point x="412" y="455"/>
			<point x="367" y="488"/>
			<point x="274" y="537" type="curve" smooth="yes"/>
			<point x="182" y="585"/>
			<point x="136" y="605"/>
			<point x="136" y="652" type="curve" smooth="yes"/>
			<point x="136" y="691"/>
			<point x="170" y="714"/>
			<point x="206" y="714" type="curve" smooth="yes"/>
			<point x="247" y="714"/>
			<point x="296" y="686"/>
			<point x="325" y="620" type="curve" smooth="yes"/>
			<point x="328" y="610"/>
			<point x="367" y="616"/>
			<point x="365" y="627" type="curve" smooth="yes"/>
			<point x="347" y="750" type="line"/>
			<point x="319" y="760"/>
			<point x="278" y="770"/>
			<point x="235" y="770" type="curve" smooth="yes"/>
			<point x="143" y="770"/>
			<point x="51" y="718"/>
			<point x="51" y="618" type="curve" smooth="yes"/>
			<point x="51" y="553"/>
			<point x="102" y="535"/>
			<point x="145" y="509" type="curve" smooth="yes"/>
			<point x="273" y="432"/>
			<point x="321" y="420"/>
			<point x="321" y="365" type="curve" smooth="yes"/>
			<point x="321" y="324"/>
			<point x="284" y="284"/>
			<point x="239" y="284" type="curve"/>
		</contour>
		<contour>
			<point x="189" y="-9" type="curve" smooth="yes"/>
			<point x="280" y="-9"/>
			<point x="382" y="36"/>
			<point x="382" y="137" type="curve" smooth="yes"/>
			<point x="382" y="215"/>
			<point x="328" y="239"/>
			<point x="274" y="267" type="curve" smooth="yes"/>
			<point x="150" y="331"/>
			<point x="106" y="365"/>
			<point x="106" y="412" type="curve" smooth="yes"/>
			<point x="106" y="451"/>
			<point x="140" y="494"/>
			<point x="176" y="494" type="curve"/>
			<point x="205" y="550" type="line"/>
			<point x="113" y="550"/>
			<point x="21" y="488"/>
			<point x="21" y="388" type="curve" smooth="yes"/>
			<point x="21" y="323"/>
			<point x="73" y="283"/>
			<point x="145" y="239" type="curve" smooth="yes"/>
			<point x="236" y="184"/>
			<point x="291" y="170"/>
			<point x="291" y="115" type="curve" smooth="yes"/>
			<point x="291" y="74"/>
			<point x="254" y="44"/>
			<point x="209" y="44" type="curve" smooth="yes"/>
			<point x="165" y="44"/>
			<point x="112" y="72"/>
			<point x="77" y="148" type="curve" smooth="yes"/>
			<point x="72" y="157"/>
			<point x="38" y="149"/>
			<point x="40" y="135" type="curve" smooth="yes"/>
			<point x="59" y="15" type="line"/>
			<point x="100" y="0"/>
			<point x="145" y="-9"/>
		</contour>
	</outline>
</glyph>
<glyph name="copyright" format="2">
	<advance width="1040"/>
	<unicode hex="00A9"/>
	<outline>
		<contour>
			<point x="508" y="35" type="curve" smooth="yes"/>
			<point x="563" y="35"/>
			<point x="628" y="57"/>
			<point x="702" y="115" type="curve"/>
			<point x="680" y="155" type="line" name="_corner00"/>
			<point x="628" y="129"/>
			<point x="580" y="116"/>
			<point x="539" y="116" type="curve" smooth="yes"/>
			<point x="444" y="116"/>
			<point x="385" y="186"/>
			<point x="382" y="284" type="curve" smooth="yes"/>
			<point x="378" y="379"/>
			<point x="416" y="445"/>
			<point x="496" y="445" type="curve" smooth="yes"/>
			<point x="554" y="445"/>
			<point x="595" y="412"/>
			<point x="638" y="375" type="curve" smooth="yes"/>
			<point x="666" y="351"/>
			<point x="697" y="454"/>
			<point x="675" y="475" type="curve" smooth="yes"/>
			<point x="654" y="495"/>
			<point x="599" y="516"/>
			<point x="534" y="516" type="curve" smooth="yes"/>
			<point x="411" y="516"/>
			<point x="283" y="388"/>
			<point x="287" y="257" type="curve" smooth="yes"/>
			<point x="292" y="132"/>
			<point x="385" y="35"/>
		</contour>
		<contour>
			<point x="520" y="-124" type="curve" smooth="yes"/>
			<point x="302" y="-124"/>
			<point x="125" y="53"/>
			<point x="125" y="271" type="curve" smooth="yes"/>
			<point x="125" y="489"/>
			<point x="302" y="666"/>
			<point x="520" y="666" type="curve" smooth="yes"/>
			<point x="738" y="666"/>
			<point x="915" y="489"/>
			<point x="915" y="271" type="curve" smooth="yes"/>
			<point x="915" y="53"/>
			<point x="738" y="-124"/>
		</contour>
		<contour>
			<point x="520" y="-199" type="curve" smooth="yes"/>
			<point x="779" y="-199"/>
			<point x="990" y="12"/>
			<point x="990" y="271" type="curve" smooth="yes"/>
			<point x="990" y="530"/>
			<point x="779" y="741"/>
			<point x="520" y="741" type="curve" smooth="yes"/>
			<point x="261" y="741"/>
			<point x="50" y="530"/>
			<point x="50" y="271" type="curve" smooth="yes"/>
			<point x="50" y="12"/>
			<point x="261" y="-199"/>
		</contour>
	</outline>
</glyph>
<glyph name="ordfeminine" format="2">
	<advance width="360"/>
	<unicode hex="00AA"/>
	<outline>
		<contour>
			<point x="200" y="653" type="line"/>
			<point x="198" y="558" type="line"/>
			<point x="205" y="497"/>
			<point x="257" y="503"/>
			<point x="299" y="533" type="curve" smooth="yes"/>
			<point x="312" y="543"/>
			<point x="306" y="561"/>
			<point x="292" y="556" type="curve" smooth="yes"/>
			<point x="264" y="545"/>
			<point x="244" y="549"/>
			<point x="245" y="576" type="curve" smooth="yes"/>
			<point x="248" y="686" type="line" smooth="yes"/>
			<point x="251" y="783"/>
			<point x="162" y="797"/>
			<point x="78" y="731" type="curve"/>
			<point x="89" y="706" type="line" name="_corner00"/>
			<point x="139" y="740"/>
			<point x="196" y="743"/>
			<point x="199" y="677" type="curve" smooth="yes"/>
		</contour>
		<contour>
			<point x="213" y="554" type="curve"/>
			<point x="213" y="594" type="line"/>
			<point x="194" y="574"/>
			<point x="174" y="558"/>
			<point x="152" y="558" type="curve" smooth="yes"/>
			<point x="107" y="558"/>
			<point x="97" y="607"/>
			<point x="151" y="620" type="curve" smooth="yes"/>
			<point x="212" y="635" type="line"/>
			<point x="213" y="667" type="line"/>
			<point x="123" y="651" type="line" smooth="yes"/>
			<point x="29" y="634"/>
			<point x="52" y="511"/>
			<point x="128" y="511" type="curve" smooth="yes"/>
			<point x="156" y="511"/>
			<point x="187" y="530"/>
		</contour>
		<contour>
			<point x="303" y="426" type="line" smooth="yes"/>
			<point x="313" y="426"/>
			<point x="313" y="469"/>
			<point x="303" y="469" type="curve" smooth="yes"/>
			<point x="180" y="464" type="line"/>
			<point x="57" y="469" type="line" smooth="yes"/>
			<point x="47" y="469"/>
			<point x="47" y="426"/>
			<point x="57" y="426" type="curve" smooth="yes"/>
			<point x="180" y="431" type="line"/>
		</contour>
	</outline>
</glyph>
<glyph name="registered" format="2">
	<advance width="600"/>
	<unicode hex="00AE"/>
	<outline>
		<contour>
			<point x="201" y="430" type="line" name="_corner03"/>
			<point x="249" y="430" type="line" name="_corner00"/>
			<point x="249" y="515" type="line"/>
			<point x="283" y="515" type="line"/>
			<point x="330" y="430" type="line"/>
			<point x="386" y="430" type="line" name="_corner01"/>
			<point x="326" y="523" type="line"/>
			<point x="410" y="548"/>
			<point x="383" y="637"/>
			<point x="302" y="637" type="curve" smooth="yes"/>
			<point x="201" y="637" type="line" name="_corner02"/>
		</contour>
		<contour>
			<point x="249" y="540" type="curve"/>
			<point x="249" y="612" type="line"/>
			<point x="287" y="612" type="line" smooth="yes"/>
			<point x="345" y="612"/>
			<point x="349" y="520"/>
		</contour>
		<contour>
			<point x="280" y="326" type="curve" smooth="yes"/>
			<point x="168" y="326"/>
			<point x="77" y="417"/>
			<point x="77" y="529" type="curve" smooth="yes"/>
			<point x="77" y="641"/>
			<point x="168" y="732"/>
			<point x="280" y="732" type="curve" smooth="yes"/>
			<point x="392" y="732"/>
			<point x="483" y="641"/>
			<point x="483" y="529" type="curve" smooth="yes"/>
			<point x="483" y="417"/>
			<point x="392" y="326"/>
		</contour>
		<contour>
			<point x="280" y="288" type="curve" smooth="yes"/>
			<point x="413" y="288"/>
			<point x="521" y="396"/>
			<point x="521" y="529" type="curve" smooth="yes"/>
			<point x="521" y="662"/>
			<point x="413" y="770"/>
			<point x="280" y="770" type="curve" smooth="yes"/>
			<point x="147" y="770"/>
			<point x="39" y="662"/>
			<point x="39" y="529" type="curve" smooth="yes"/>
			<point x="39" y="396"/>
			<point x="147" y="288"/>
		</contour>
	</outline>
</glyph>
<glyph name="degree" format="2">
	<advance width="380"/>
	<unicode hex="00B0"/>
	<outline>
		<contour>
			<point x="185" y="510" type="curve" smooth="yes"/>
			<point x="267" y="510"/>
			<point x="337" y="570"/>
			<point x="340" y="660" type="curve" smooth="yes"/>
			<point x="343" y="750"/>
			<point x="278" y="810"/>
			<point x="195" y="810" type="curve" smooth="yes"/>
			<point x="113" y="810"/>
			<point x="43" y="750"/>
			<point x="40" y="660" type="curve" smooth="yes"/>
			<point x="37" y="570"/>
			<point x="102" y="510"/>
		</contour>
		<contour>
			<point x="200" y="566" type="curve" smooth="yes"/>
			<point x="148" y="566"/>
			<point x="106" y="601"/>
			<point x="100" y="660" type="curve" smooth="yes"/>
			<point x="94" y="719"/>
			<point x="129" y="754"/>
			<point x="180" y="754" type="curve" smooth="yes"/>
			<point x="232" y="754"/>
			<point x="274" y="719"/>
			<point x="280" y="660" type="curve" smooth="yes"/>
			<point x="286" y="601"/>
			<point x="251" y="566"/>
		</contour>
	</outline>
</glyph>
<glyph name="paragraph" format="2">
	<advance width="756"/>
	<unicode hex="00B6"/>
	<outline>
		<contour>
			<point x="373" y="-250" type="line" name="_corner01"/>
			<point x="443" y="-250" type="line" name="_corner02"/>
			<point x="443" y="760" type="line" name="_corner03"/>
			<point x="327" y="760" type="line" smooth="yes"/>
			<point x="197" y="760"/>
			<point x="100" y="672"/>
			<point x="100" y="551" type="curve" smooth="yes"/>
			<point x="100" y="431"/>
			<point x="197" y="343"/>
			<point x="327" y="343" type="curve" smooth="yes"/>
			<point x="373" y="343" type="line" name="_corner00"/>
		</contour>
		<contour>
			<point x="503" y="-250" type="line" name="_corner04"/>
			<point x="573" y="-250" type="line" name="_corner05"/>
			<point x="573" y="760" type="line" name="_corner06"/>
			<point x="503" y="760" type="line" name="_corner07"/>
		</contour>
	</outline>
</glyph>
<glyph name="ordmasculine" format="2">
	<advance width="360"/>
	<unicode hex="00BA"/>
	<outline>
		<contour>
			<point x="303" y="426" type="line" smooth="yes"/>
			<point x="313" y="426"/>
			<point x="313" y="469"/>
			<point x="303" y="469" type="curve" smooth="yes"/>
			<point x="180" y="464" type="line"/>
			<point x="57" y="469" type="line" smooth="yes"/>
			<point x="47" y="469"/>
			<point x="47" y="426"/>
			<point x="57" y="426" type="curve" smooth="yes"/>
			<point x="180" y="431" type="line"/>
		</contour>
		<contour>
			<point x="176" y="510" type="curve" smooth="yes"/>
			<point x="244" y="510"/>
			<point x="303" y="560"/>
			<point x="305" y="635" type="curve" smooth="yes"/>
			<point x="308" y="710"/>
			<point x="253" y="760"/>
			<point x="184" y="760" type="curve" smooth="yes"/>
			<point x="116" y="760"/>
			<point x="58" y="710"/>
			<point x="55" y="635" type="curve" smooth="yes"/>
			<point x="53" y="560"/>
			<point x="107" y="510"/>
		</contour>
		<contour>
			<point x="188" y="557" type="curve" smooth="yes"/>
			<point x="145" y="557"/>
			<point x="110" y="586"/>
			<point x="105" y="635" type="curve" smooth="yes"/>
			<point x="100" y="684"/>
			<point x="129" y="713"/>
			<point x="172" y="713" type="curve" smooth="yes"/>
			<point x="215" y="713"/>
			<point x="250" y="684"/>
			<point x="255" y="635" type="curve" smooth="yes"/>
			<point x="260" y="586"/>
			<point x="231" y="557"/>
		</contour>
	</outline>
</glyph>
<glyph name="AE" format="2">
	<advance width="1113"/>
	<unicode hex="00C6"/>
	<anchor x="522" y="0" name="bottom"/>
	<anchor x="522" y="760" name="top"/>
	<outline>
		<contour>
			<point x="101" y="0" type="line" name="_corner01"/>
			<point x="511" y="692" type="line" name="_corner07"/>
			<point x="511" y="-1" type="line" name="_corner06"/>
			<point x="976" y="-1" type="line" name="_corner02"/>
			<point x="1012" y="179" type="line"/>
			<point x="979" y="193" type="line" name="_corner03"/>
			<point x="912" y="83"/>
			<point x="898" y="55"/>
			<point x="756" y="55" type="curve" smooth="yes"/>
			<point x="629" y="55"/>
			<point x="611" y="60"/>
			<point x="611" y="119" type="curve" smooth="yes"/>
			<point x="611" y="345" type="line"/>
			<point x="745" y="345" type="line" smooth="yes"/>
			<point x="810" y="345"/>
			<point x="807" y="339"/>
			<point x="842" y="276" type="curve" smooth="yes"/>
			<point x="846" y="269"/>
			<point x="871" y="273"/>
			<point x="871" y="282" type="curve" smooth="yes"/>
			<point x="871" y="338"/>
			<point x="870" y="352"/>
			<point x="870" y="373" type="curve" smooth="yes"/>
			<point x="870" y="393"/>
			<point x="871" y="407"/>
			<point x="871" y="463" type="curve" smooth="yes"/>
			<point x="871" y="472"/>
			<point x="846" y="476"/>
			<point x="842" y="469" type="curve" smooth="yes"/>
			<point x="807" y="406"/>
			<point x="810" y="400"/>
			<point x="745" y="400" type="curve" smooth="yes"/>
			<point x="611" y="400" type="line"/>
			<point x="611" y="640" type="line" smooth="yes"/>
			<point x="611" y="699"/>
			<point x="629" y="704"/>
			<point x="756" y="704" type="curve" smooth="yes"/>
			<point x="878" y="704"/>
			<point x="882" y="686"/>
			<point x="949" y="576" type="curve"/>
			<point x="982" y="590" type="line" name="_corner04"/>
			<point x="956" y="770" type="line" name="_corner05"/>
			<point x="806" y="760" type="line"/>
			<point x="481" y="760" type="line" name="_corner08"/>
			<point x="16" y="0" type="line" name="_corner00"/>
		</contour>
		<contour>
			<point x="306" y="405" type="line"/>
			<point x="296" y="340" type="line"/>
			<point x="576" y="345" type="line"/>
			<point x="576" y="400" type="line"/>
		</contour>
	</outline>
</glyph>
<glyph name="Eth" format="2">
	<advance width="894"/>
	<unicode hex="00D0"/>
	<outline>
		<component base="D" xOffset="10"/>
		<contour>
			<point x="61" y="420" type="line"/>
			<point x="61" y="360" type="line" name="_corner00"/>
			<point x="381" y="360" type="line"/>
			<point x="381" y="420" type="line" name="_corner01"/>
		</contour>
	</outline>
</glyph>
<glyph name="multiply" format="2">
	<advance width="466"/>
	<unicode hex="00D7"/>
	<outline>
		<contour>
			<point x="414" y="396" type="line"/>
			<point x="378" y="432" type="line" name="_corner00"/>
			<point x="233" y="305" type="line"/>
			<point x="88" y="432" type="line"/>
			<point x="52" y="396" type="line" name="_corner02"/>
			<point x="180" y="252" type="line"/>
			<point x="53" y="107" type="line"/>
			<point x="89" y="71" type="line" name="_corner01"/>
			<point x="233" y="199" type="line"/>
			<point x="377" y="71" type="line"/>
			<point x="414" y="107" type="line" name="_corner03"/>
			<point x="286" y="252" type="line"/>
		</contour>
	</outline>
</glyph>
<glyph name="Oslash" format="2">
	<advance width="1006"/>
	<unicode hex="00D8"/>
	<outline>
		<component base="O" xOffset="46"/>
		<contour>
			<point x="829" y="804" type="line" name="_corner01"/>
			<point x="102" y="-9" type="line"/>
			<point x="143" y="-44" type="line" name="_corner00"/>
			<point x="870" y="769" type="line"/>
		</contour>
	</outline>
</glyph>
<glyph name="Thorn" format="2">
	<advance width="764"/>
	<unicode hex="00DE"/>
	<anchor x="389" y="0" name="bottom"/>
	<anchor x="389" y="760" name="top"/>
	<outline>
		<contour>
			<point x="183" y="0" type="line" name="_corner01"/>
			<point x="283" y="0" type="line" name="_corner00"/>
			<point x="283" y="160" type="line"/>
			<point x="481" y="147"/>
			<point x="664" y="207"/>
			<point x="664" y="399" type="curve" smooth="yes"/>
			<point x="664" y="510"/>
			<point x="592" y="620"/>
			<point x="390" y="620" type="curve" smooth="yes"/>
			<point x="183" y="620" type="line"/>
		</contour>
		<contour>
			<point x="283" y="230" type="curve"/>
			<point x="283" y="555" type="line"/>
			<point x="422" y="580"/>
			<point x="559" y="533"/>
			<point x="559" y="380" type="curve" smooth="yes"/>
			<point x="559" y="232"/>
			<point x="413" y="195"/>
		</contour>
		<contour>
			<point x="283" y="600" type="line"/>
			<point x="283" y="760" type="line" name="_corner03"/>
			<point x="183" y="760" type="line" name="_corner02"/>
			<point x="183" y="600" type="line"/>
		</contour>
	</outline>
</glyph>
<glyph name="germandbls" format="2">
	<advance width="598"/>
	<unicode hex="00DF"/>
	<anchor x="299" y="0" name="bottom"/>
	<anchor x="299" y="800" name="top"/>
	<outline>
		<contour>
			<point x="471" y="627" type="curve" smooth="yes"/>
			<point x="471" y="710"/>
			<point x="396" y="771"/>
			<point x="321" y="771" type="curve" smooth="yes"/>
			<point x="240" y="771"/>
			<point x="157" y="724"/>
			<point x="127" y="609" type="curve" smooth="yes"/>
			<point x="95" y="488"/>
			<point x="116" y="501"/>
			<point x="40" y="458" type="curve" smooth="yes"/>
			<point x="33" y="454"/>
			<point x="37" y="430"/>
			<point x="46" y="430" type="curve" smooth="yes"/>
			<point x="108" y="430" type="line" name="_corner02"/>
			<point x="108" y="0" type="line" name="_corner00"/>
			<point x="203" y="0" type="line" name="_corner01"/>
			<point x="193" y="165" type="line"/>
			<point x="193" y="599" type="line" smooth="yes"/>
			<point x="193" y="677"/>
			<point x="238" y="696"/>
			<point x="283" y="696" type="curve" smooth="yes"/>
			<point x="368" y="696"/>
			<point x="428" y="609"/>
			<point x="346" y="514" type="curve" smooth="yes"/>
			<point x="210" y="356"/>
			<point x="263" y="286"/>
			<point x="341" y="239" type="curve" smooth="yes"/>
			<point x="432" y="184"/>
			<point x="467" y="170"/>
			<point x="467" y="115" type="curve" smooth="yes"/>
			<point x="467" y="35"/>
			<point x="355" y="4"/>
			<point x="283" y="118" type="curve" smooth="yes"/>
			<point x="278" y="127"/>
			<point x="244" y="119"/>
			<point x="247" y="105" type="curve" smooth="yes"/>
			<point x="265" y="15" type="line"/>
			<point x="370" y="-36"/>
			<point x="558" y="-8"/>
			<point x="558" y="137" type="curve" smooth="yes"/>
			<point x="558" y="195"/>
			<point x="519" y="237"/>
			<point x="473" y="264" type="curve" smooth="yes"/>
			<point x="310" y="363"/>
			<point x="313" y="395"/>
			<point x="415" y="508" type="curve" smooth="yes"/>
			<point x="451" y="548"/>
			<point x="471" y="585"/>
		</contour>
	</outline>
</glyph>
<glyph name="eth" format="2">
	<advance width="557"/>
	<unicode hex="00F0"/>
	<anchor x="279" y="0" name="bottom"/>
	<anchor x="279" y="800" name="top"/>
	<outline>
		<contour>
			<point x="270" y="-8" type="curve" smooth="yes"/>
			<point x="416" y="-8"/>
			<point x="512" y="102"/>
			<point x="512" y="260" type="curve" smooth="yes"/>
			<point x="512" y="461"/>
			<point x="325" y="663"/>
			<point x="101" y="733" type="curve"/>
			<point x="77" y="689" type="line" name="_corner00"/>
			<point x="270" y="605"/>
			<point x="413" y="438"/>
			<point x="413" y="242" type="curve" smooth="yes"/>
			<point x="413" y="118"/>
			<point x="365" y="51"/>
			<point x="287" y="51" type="curve" smooth="yes"/>
			<point x="209" y="51"/>
			<point x="165" y="122"/>
			<point x="157" y="212" type="curve" smooth="yes"/>
			<point x="144" y="363"/>
			<point x="281" y="461"/>
			<point x="406" y="393" type="curve"/>
			<point x="419" y="433" type="line"/>
			<point x="245" y="526"/>
			<point x="50" y="412"/>
			<point x="50" y="219" type="curve" smooth="yes"/>
			<point x="50" y="116"/>
			<point x="124" y="-8"/>
		</contour>
		<contour>
			<point x="89" y="549" type="line"/>
			<point x="125" y="509" type="line" name="_corner01"/>
			<point x="379" y="723" type="line"/>
			<point x="343" y="763" type="line" name="_corner02"/>
		</contour>
	</outline>
</glyph>
<glyph name="divide" format="2">
	<advance width="622"/>
	<unicode hex="00F7"/>
	<outline>
		<contour>
			<point x="61" y="295" type="line"/>
			<point x="61" y="225" type="line" name="_corner00"/>
			<point x="310" y="230" type="line"/>
			<point x="561" y="225" type="line"/>
			<point x="561" y="295" type="line" name="_corner01"/>
			<point x="310" y="290" type="line"/>
		</contour>
		<component base="period" xScale="0.8" yScale="0.8" xOffset="190" yOffset="31"/>
		<component base="period" xScale="0.8" yScale="0.8" xOffset="190" yOffset="391"/>
	</outline>
</glyph>
<glyph name="oslash" format="2">
	<advance width="582"/>
	<unicode hex="00F8"/>
	<outline>
		<component base="o"/>
		<contour>
			<point x="499" y="564" type="line" name="_corner01"/>
			<point x="42" y="-29" type="line"/>
			<point x="83" y="-64" type="line" name="_corner00"/>
			<point x="540" y="529" type="line"/>
		</contour>
	</outline>
</glyph>
<glyph name="thorn" format="2">
	<advance width="598"/>
	<unicode hex="00FE"/>
	<anchor x="299" y="0" name="bottom"/>
	<anchor x="299" y="500" name="top"/>
	<outline>
		<contour>
			<point x="75" y="770" type="curve" name="_corner04"/>
			<point x="90" y="697"/>
			<point x="111" y="610"/>
			<point x="111" y="435" type="curve" smooth="yes"/>
			<point x="111" y="-250" type="line" name="_corner01"/>
			<point x="196" y="-250" type="line" name="_corner02"/>
			<point x="196" y="530" type="line" smooth="yes"/>
			<point x="196" y="625"/>
			<point x="201" y="720"/>
			<point x="206" y="815" type="curve" name="_corner03"/>
			<point x="160" y="798"/>
			<point x="121" y="781"/>
		</contour>
		<contour>
			<point x="545" y="268" type="curve" smooth="yes"/>
			<point x="545" y="400"/>
			<point x="485" y="510"/>
			<point x="351" y="510" type="curve" smooth="yes"/>
			<point x="280" y="510"/>
			<point x="199" y="467"/>
			<point x="120" y="360" type="curve"/>
			<point x="159" y="350" type="line" name="_corner00"/>
			<point x="209" y="405"/>
			<point x="262" y="431"/>
			<point x="310" y="431" type="curve" smooth="yes"/>
			<point x="414" y="431"/>
			<point x="455" y="353"/>
			<point x="455" y="221" type="curve" smooth="yes"/>
			<point x="455" y="100"/>
			<point x="384" y="57"/>
			<point x="308" y="57" type="curve" smooth="yes"/>
			<point x="254" y="57"/>
			<point x="199" y="78"/>
			<point x="165" y="110" type="curve"/>
			<point x="140" y="25" type="line"/>
			<point x="165" y="10"/>
			<point x="219" y="-11"/>
			<point x="294" y="-11" type="curve" smooth="yes"/>
			<point x="407" y="-11"/>
			<point x="545" y="107"/>
		</contour>
	</outline>
</glyph>
<glyph name="dcroat" format="2">
	<advance width="628"/>
	<unicode hex="0111"/>
	<outline>
		<component base="d"/>
		<contour>
			<point x="322" y="650" type="line"/>
			<point x="322" y="590" type="line" name="_corner00"/>
			<point x="622" y="590" type="line"/>
			<point x="622" y="650" type="line" name="_corner01"/>
			<point x="472" y="645" type="line"/>
		</contour>
	</outline>
</glyph>
<glyph name="Hbar" format="2">
	<advance width="1036"/>
	<unicode hex="0126"/>
	<outline>
		<component base="H" xOffset="70"/>
		<contour>
			<point x="111" y="570" type="line"/>
			<point x="111" y="520" type="line" name="_corner00"/>
			<point x="847" y="520" type="line"/>
			<point x="847" y="570" type="line" name="_corner01"/>
		</contour>
	</outline>
</glyph>
<glyph name="hbar" format="2">
	<advance width="628"/>
	<unicode hex="0127"/>
	<outline>
		<component base="h"/>
		<contour>
			<point x="12" y="650" type="line"/>
			<point x="12" y="590" type="line" name="_corner00"/>
			<point x="312" y="590" type="line"/>
			<point x="312" y="650" type="line" name="_corner01"/>
			<point x="162" y="645" type="line"/>
		</contour>
	</outline>
</glyph>
<glyph name="idotless" format="2">
	<advance width="321"/>
	<unicode hex="0131"/>
	<anchor x="161" y="0" name="bottom"/>
	<anchor x="274" y="0" name="ogonek"/>
	<anchor x="123" y="500" name="top"/>
	<outline>
		<contour>
			<point x="113" y="0" type="line" name="_corner03"/>
			<point x="198" y="0" type="line" name="_corner00"/>
			<point x="198" y="515" type="line" name="_corner01"/>
			<point x="168" y="503"/>
			<point x="144" y="492"/>
			<point x="113" y="480" type="curve" name="_corner02"/>
		</contour>
	</outline>
</glyph>
<glyph name="Lslash" format="2">
	<advance width="839"/>
	<unicode hex="0141"/>
	<outline>
		<component base="L" xOffset="74"/>
		<contour>
			<point x="103" y="369" type="line"/>
			<point x="134" y="323" type="line" name="_corner00"/>
			<point x="433" y="517" type="line"/>
			<point x="402" y="563" type="line" name="_corner01"/>
		</contour>
	</outline>
</glyph>
<glyph name="lslash" format="2">
	<advance width="321"/>
	<unicode hex="0142"/>
	<outline>
		<component base="l"/>
		<contour>
			<point x="19" y="389" type="line"/>
			<point x="55" y="349" type="line" name="_corner00"/>
			<point x="304" y="543" type="line"/>
			<point x="268" y="583" type="line" name="_corner01"/>
		</contour>
	</outline>
</glyph>
<glyph name="OE" format="2">
	<advance width="1213"/>
	<unicode hex="0152"/>
	<anchor x="592" y="0" name="bottom"/>
	<anchor x="592" y="760" name="top"/>
	<outline>
		<contour>
			<point x="611" y="0" type="line"/>
			<point x="1076" y="0" type="line" name="_corner00"/>
			<point x="1112" y="179" type="line"/>
			<point x="1079" y="193" type="line" name="_corner01"/>
			<point x="1012" y="83"/>
			<point x="998" y="55"/>
			<point x="856" y="55" type="curve" smooth="yes"/>
			<point x="729" y="55"/>
			<point x="711" y="60"/>
			<point x="711" y="119" type="curve" smooth="yes"/>
			<point x="711" y="365" type="line"/>
			<point x="845" y="365" type="line"/>
			<point x="910" y="365"/>
			<point x="907" y="359"/>
			<point x="942" y="296" type="curve"/>
			<point x="946" y="289"/>
			<point x="971" y="293"/>
			<point x="971" y="302" type="curve"/>
			<point x="971" y="358"/>
			<point x="970" y="372"/>
			<point x="970" y="393" type="curve" smooth="yes"/>
			<point x="970" y="413"/>
			<point x="971" y="427"/>
			<point x="971" y="483" type="curve"/>
			<point x="971" y="492"/>
			<point x="946" y="496"/>
			<point x="942" y="489" type="curve"/>
			<point x="907" y="426"/>
			<point x="910" y="420"/>
			<point x="845" y="420" type="curve"/>
			<point x="711" y="420" type="line"/>
			<point x="711" y="640" type="line" smooth="yes"/>
			<point x="711" y="699"/>
			<point x="729" y="704"/>
			<point x="856" y="704" type="curve" smooth="yes"/>
			<point x="978" y="704"/>
			<point x="982" y="686"/>
			<point x="1049" y="576" type="curve"/>
			<point x="1082" y="590" type="line" name="_corner02"/>
			<point x="1056" y="770" type="line" name="_corner03"/>
			<point x="906" y="760" type="line"/>
			<point x="611" y="760" type="line"/>
		</contour>
		<contour>
			<point x="524" y="760" type="line" smooth="yes"/>
			<point x="279" y="760"/>
			<point x="100" y="597"/>
			<point x="100" y="365" type="curve" smooth="yes"/>
			<point x="100" y="147"/>
			<point x="271" y="0"/>
			<point x="496" y="0" type="curve" smooth="yes"/>
			<point x="711" y="0" type="line"/>
			<point x="711" y="760" type="line"/>
		</contour>
		<contour>
			<point x="611" y="695" type="curve" name="_corner05"/>
			<point x="611" y="65" type="line" name="_corner04"/>
			<point x="484" y="41"/>
			<point x="207" y="67"/>
			<point x="207" y="406" type="curve" smooth="yes"/>
			<point x="207" y="675"/>
			<point x="435" y="729"/>
		</contour>
	</outline>
</glyph>
<glyph name="oe" format="2">
	<advance width="915"/>
	<unicode hex="0153"/>
	<anchor x="458" y="0" name="bottom"/>
	<anchor x="458" y="500" name="top"/>
	<outline>
		<contour>
			<point x="273" y="-10" type="curve" smooth="yes"/>
			<point x="403" y="-10"/>
			<point x="532" y="112"/>
			<point x="532" y="268" type="curve" smooth="yes"/>
			<point x="532" y="403"/>
			<point x="442" y="510"/>
			<point x="309" y="510" type="curve" smooth="yes"/>
			<point x="175" y="510"/>
			<point x="50" y="384"/>
			<point x="50" y="232" type="curve" smooth="yes"/>
			<point x="50" y="97"/>
			<point x="140" y="-10"/>
		</contour>
		<contour>
			<point x="311" y="60" type="curve" smooth="yes"/>
			<point x="208" y="60"/>
			<point x="145" y="135"/>
			<point x="145" y="279" type="curve" smooth="yes"/>
			<point x="145" y="374"/>
			<point x="185" y="440"/>
			<point x="271" y="440" type="curve" smooth="yes"/>
			<point x="374" y="440"/>
			<point x="437" y="365"/>
			<point x="437" y="221" type="curve" smooth="yes"/>
			<point x="437" y="126"/>
			<point x="397" y="60"/>
		</contour>
		<contour>
			<point x="443" y="232" type="curve" smooth="yes"/>
			<point x="443" y="77"/>
			<point x="538" y="-10"/>
			<point x="661" y="-10" type="curve" smooth="yes"/>
			<point x="716" y="-10"/>
			<point x="782" y="12"/>
			<point x="858" y="70" type="curve"/>
			<point x="837" y="110" type="line" name="_corner00"/>
			<point x="660" y="9"/>
			<point x="532" y="91"/>
			<point x="532" y="283" type="curve" smooth="yes"/>
			<point x="532" y="501"/>
			<point x="753" y="483"/>
			<point x="753" y="325" type="curve"/>
			<point x="523" y="318" type="line"/>
			<point x="526" y="273" type="line"/>
			<point x="859" y="273" type="line" name="_corner01"/>
			<point x="859" y="444"/>
			<point x="777" y="510"/>
			<point x="673" y="511" type="curve" smooth="yes"/>
			<point x="566" y="512"/>
			<point x="443" y="404"/>
		</contour>
	</outline>
</glyph>
<glyph name="rcaron" format="2">
	<advance width="423"/>
	<unicode hex="0159"/>
	<outline>
		<contour>
			<point x="123" y="0" type="line" name="_corner03"/>
			<point x="208" y="0" type="line" name="_corner00"/>
			<point x="208" y="304" type="line" smooth="yes"/>
			<point x="208" y="397"/>
			<point x="261" y="424"/>
			<point x="366" y="392" type="curve" smooth="yes"/>
			<point x="382" y="387"/>
			<point x="419" y="484"/>
			<point x="381" y="497" type="curve" smooth="yes"/>
			<point x="280" y="533"/>
			<point x="272" y="497"/>
			<point x="208" y="407" type="curve"/>
			<point x="208" y="520" type="line" name="_corner01"/>
			<point x="178" y="508"/>
			<point x="154" y="497"/>
			<point x="123" y="485" type="curve" name="_corner02"/>
		</contour>
		<contour>
			<point x="364" y="710" type="curve" smooth="yes"/>
			<point x="273" y="608" type="line" smooth="yes"/>
			<point x="249" y="582"/>
			<point x="238" y="583"/>
			<point x="215" y="608" type="curve" smooth="yes"/>
			<point x="124" y="710" type="line" smooth="yes"/>
			<point x="112" y="724"/>
			<point x="141" y="758"/>
			<point x="154" y="750" type="curve" smooth="yes"/>
			<point x="244" y="695" type="line"/>
			<point x="334" y="750" type="line" smooth="yes"/>
			<point x="347" y="758"/>
			<point x="376" y="723"/>
		</contour>
	</outline>
</glyph>
<glyph name="jdotless" format="2">
	<advance width="309"/>
	<unicode hex="0237"/>
	<anchor x="166" y="-250" name="bottom"/>
	<anchor x="166" y="500" name="top"/>
	<outline>
		<contour>
			<point x="25" y="-222" type="curve"/>
			<point x="46" y="-260" type="line" name="_corner00"/>
			<point x="171" y="-193"/>
			<point x="212" y="-138"/>
			<point x="212" y="-27" type="curve" smooth="yes"/>
			<point x="212" y="515" type="line" name="_corner01"/>
			<point x="182" y="503"/>
			<point x="158" y="492"/>
			<point x="127" y="480" type="curve" name="_corner02"/>
			<point x="127" y="-29" type="line" smooth="yes"/>
			<point x="127" y="-124"/>
			<point x="112" y="-167"/>
		</contour>
	</outline>
</glyph>
<glyph name="acutecomb" format="2">
	<advance width="301"/>
	<unicode hex="0301"/>
	<anchor x="151" y="500" name="_top"/>
	<anchor x="151" y="774" name="top"/>
	<outline>
		<contour>
			<point x="79" y="584" type="curve"/>
			<point x="172" y="645"/>
			<point x="237" y="689"/>
			<point x="251" y="702" type="curve"/>
			<point x="255" y="724"/>
			<point x="205" y="777"/>
			<point x="181" y="774" type="curve"/>
			<point x="168" y="761"/>
			<point x="117" y="701"/>
			<point x="52" y="613" type="curve"/>
			<point x="44" y="604"/>
			<point x="70" y="578"/>
		</contour>
	</outline>
</glyph>
<glyph name="circumflexcomb" format="2">
	<advance width="386"/>
	<unicode hex="0302"/>
	<anchor x="193" y="500" name="_top"/>
	<anchor x="193" y="761" name="top"/>
	<outline>
		<contour>
			<point x="53" y="619" type="curve" smooth="yes"/>
			<point x="164" y="741" type="line" smooth="yes"/>
			<point x="187" y="766"/>
			<point x="198" y="767"/>
			<point x="222" y="741" type="curve" smooth="yes"/>
			<point x="333" y="619" type="line" smooth="yes"/>
			<point x="345" y="605"/>
			<point x="317" y="579"/>
			<point x="309" y="584" type="curve" smooth="yes"/>
			<point x="193" y="654" type="line"/>
			<point x="77" y="584" type="line" smooth="yes"/>
			<point x="69" y="579"/>
			<point x="41" y="605"/>
		</contour>
	</outline>
</glyph>
<glyph name="tildecomb" format="2">
	<advance width="502"/>
	<unicode hex="0303"/>
	<anchor x="226" y="500" name="_top"/>
	<anchor x="226" y="711" name="top"/>
	<outline>
		<contour>
			<point x="400" y="678" type="curve" smooth="yes"/>
			<point x="407" y="690"/>
			<point x="365" y="715"/>
			<point x="359" y="706" type="curve" smooth="yes"/>
			<point x="280" y="601"/>
			<point x="152" y="822"/>
			<point x="42" y="628" type="curve" smooth="yes"/>
			<point x="35" y="616"/>
			<point x="77" y="591"/>
			<point x="83" y="600" type="curve" smooth="yes"/>
			<point x="162" y="705"/>
			<point x="290" y="484"/>
		</contour>
	</outline>
</glyph>
<glyph name="macroncomb" format="2">
	<advance width="422"/>
	<unicode hex="0304"/>
	<anchor x="211" y="500" name="_top"/>
	<anchor x="211" y="700" name="top"/>
	<outline>
		<contour>
			<point x="361" y="630" type="line"/>
			<point x="361" y="700" type="line" name="_corner00"/>
			<point x="61" y="700" type="line"/>
			<point x="61" y="630" type="line" name="_corner01"/>
			<point x="211" y="635" type="line"/>
		</contour>
	</outline>
</glyph>
<glyph name="brevecomb" format="2">
	<advance width="460"/>
	<unicode hex="0306"/>
	<anchor x="231" y="500" name="_top"/>
	<anchor x="231" y="763" name="top"/>
	<outline>
		<contour>
			<point x="75" y="739" type="curve" smooth="yes"/>
			<point x="71" y="754"/>
			<point x="105" y="769"/>
			<point x="115" y="754" type="curve" smooth="yes"/>
			<point x="188" y="650"/>
			<point x="272" y="650"/>
			<point x="345" y="754" type="curve" smooth="yes"/>
			<point x="355" y="769"/>
			<point x="389" y="754"/>
			<point x="385" y="739" type="curve" smooth="yes"/>
			<point x="338" y="550"/>
			<point x="122" y="550"/>
		</contour>
	</outline>
</glyph>
<glyph name="dotaccentcomb" format="2">
	<advance width="230"/>
	<unicode hex="0307"/>
	<anchor x="115" y="500" name="_top"/>
	<anchor x="115" y="755" name="top"/>
	<outline>
		<contour>
			<point x="150" y="625" type="curve"/>
			<point x="183" y="640"/>
			<point x="205" y="676"/>
			<point x="205" y="700" type="curve"/>
			<point x="190" y="734"/>
			<point x="153" y="755"/>
			<point x="130" y="755" type="curve"/>
			<point x="97" y="740"/>
			<point x="75" y="704"/>
			<point x="75" y="680" type="curve"/>
			<point x="90" y="646"/>
			<point x="127" y="625"/>
		</contour>
	</outline>
</glyph>
<glyph name="ringcomb" format="2">
	<advance width="380"/>
	<unicode hex="030A"/>
	<anchor x="190" y="480" name="_top"/>
	<anchor x="190" y="787" name="top"/>
	<outline>
		<contour>
			<point x="186" y="533" type="curve" smooth="yes"/>
			<point x="255" y="533"/>
			<point x="314" y="584"/>
			<point x="317" y="660" type="curve" smooth="yes"/>
			<point x="320" y="736"/>
			<point x="264" y="787"/>
			<point x="194" y="787" type="curve" smooth="yes"/>
			<point x="125" y="787"/>
			<point x="66" y="736"/>
			<point x="63" y="660" type="curve" smooth="yes"/>
			<point x="60" y="584"/>
			<point x="116" y="533"/>
		</contour>
		<contour>
			<point x="198" y="590" type="curve" smooth="yes"/>
			<point x="159" y="590"/>
			<point x="128" y="616"/>
			<point x="123" y="660" type="curve" smooth="yes"/>
			<point x="119" y="704"/>
			<point x="145" y="730"/>
			<point x="182" y="730" type="curve" smooth="yes"/>
			<point x="221" y="730"/>
			<point x="252" y="704"/>
			<point x="257" y="660" type="curve" smooth="yes"/>
			<point x="261" y="616"/>
			<point x="235" y="590"/>
		</contour>
	</outline>
</glyph>
<glyph name="hungarumlautcomb" format="2">
	<advance width="417"/>
	<unicode hex="030B"/>
	<anchor x="209" y="500" name="_top"/>
	<anchor x="209" y="790" name="top"/>
	<outline>
		<contour>
			<point x="86" y="574" type="curve"/>
			<point x="152" y="664"/>
			<point x="199" y="727"/>
			<point x="207" y="745" type="curve"/>
			<point x="203" y="767"/>
			<point x="138" y="799"/>
			<point x="117" y="788" type="curve"/>
			<point x="109" y="771"/>
			<point x="81" y="697"/>
			<point x="51" y="593" type="curve"/>
			<point x="46" y="582"/>
			<point x="79" y="566"/>
		</contour>
		<contour>
			<point x="246" y="564" type="curve"/>
			<point x="312" y="654"/>
			<point x="359" y="717"/>
			<point x="367" y="735" type="curve"/>
			<point x="363" y="757"/>
			<point x="298" y="789"/>
			<point x="277" y="778" type="curve"/>
			<point x="269" y="761"/>
			<point x="241" y="687"/>
			<point x="211" y="583" type="curve"/>
			<point x="206" y="572"/>
			<point x="239" y="556"/>
		</contour>
	</outline>
</glyph>
<glyph name="cedillacomb" format="2">
	<advance width="301"/>
	<unicode hex="0327"/>
	<anchor x="149" y="0" name="_bottom"/>
	<anchor x="149" y="-263" name="bottom"/>
	<outline>
		<contour>
			<point x="71" y="-200" type="curve"/>
			<point x="47" y="-238" type="line" name="_corner00"/>
			<point x="186" y="-324"/>
			<point x="319" y="-162"/>
			<point x="223" y="-86" type="curve" smooth="yes"/>
			<point x="186" y="-57" type="line" smooth="yes"/>
			<point x="163" y="-39"/>
			<point x="184" y="-19"/>
			<point x="224" y="8" type="curve"/>
			<point x="168" y="13" type="line"/>
			<point x="116" y="-24"/>
			<point x="69" y="-77"/>
			<point x="115" y="-113" type="curve" smooth="yes"/>
			<point x="161" y="-149" type="line" smooth="yes"/>
			<point x="204" y="-183"/>
			<point x="152" y="-249"/>
		</contour>
	</outline>
</glyph>
<glyph name="ogonekcomb" format="2">
	<advance width="268"/>
	<unicode hex="0328"/>
	<anchor x="186" y="8" name="_ogonek"/>
	<outline>
		<contour>
			<point x="215" y="-190" type="curve" smooth="yes"/>
			<point x="90" y="-150"/>
			<point x="104" y="-59"/>
			<point x="186" y="8" type="curve"/>
			<point x="156" y="33" type="line"/>
			<point x="49" y="-56"/>
			<point x="-18" y="-199"/>
			<point x="161" y="-255" type="curve" smooth="yes"/>
			<point x="177" y="-260"/>
			<point x="248" y="-201"/>
		</contour>
	</outline>
</glyph>
<glyph name="alpha" format="2">
	<advance width="600"/>
	<unicode hex="03B1"/>
	<anchor x="300" y="500" name="top"/>
	<outline>
		<contour>
			<point x="518" y="505" type="line" name="_corner02"/>
			<point x="431" y="480" type="line"/>
			<point x="431" y="-10" type="line" name="_corner00"/>
			<point x="516" y="25" type="line" name="_corner01"/>
		</contour>
		<contour>
			<point x="55" y="232" type="curve" smooth="yes"/>
			<point x="55" y="100"/>
			<point x="115" y="-10"/>
			<point x="249" y="-10" type="curve" smooth="yes"/>
			<point x="320" y="-10"/>
			<point x="401" y="33"/>
			<point x="480" y="140" type="curve"/>
			<point x="441" y="150" type="line" name="_corner03"/>
			<point x="391" y="95"/>
			<point x="338" y="69"/>
			<point x="290" y="69" type="curve" smooth="yes"/>
			<point x="186" y="69"/>
			<point x="145" y="147"/>
			<point x="145" y="279" type="curve" smooth="yes"/>
			<point x="145" y="400"/>
			<point x="216" y="443"/>
			<point x="292" y="443" type="curve" smooth="yes"/>
			<point x="346" y="443"/>
			<point x="401" y="422"/>
			<point x="435" y="390" type="curve"/>
			<point x="460" y="475" type="line"/>
			<point x="435" y="490"/>
			<point x="381" y="511"/>
			<point x="306" y="511" type="curve" smooth="yes"/>
			<point x="193" y="511"/>
			<point x="55" y="393"/>
		</contour>
	</outline>
</glyph>
<glyph name="Germandbls" format="2">
	<advance width="972"/>
	<unicode hex="1E9E"/>
	<anchor x="498" y="0" name="bottom"/>
	<anchor x="498" y="760" name="top"/>
	<outline>
		<contour>
			<point x="183" y="0" type="line" name="_corner02"/>
			<point x="283" y="0" type="line" name="_corner04"/>
			<point x="283" y="700" type="line" name="_corner01"/>
			<point x="724" y="700" type="line"/>
			<point x="545" y="404" type="line" name="_corner00"/>
			<point x="723" y="381"/>
			<point x="775" y="285"/>
			<point x="772" y="186" type="curve" smooth="yes"/>
			<point x="770" y="110"/>
			<point x="700" y="53"/>
			<point x="617" y="53" type="curve" smooth="yes"/>
			<point x="545" y="53"/>
			<point x="475" y="101"/>
			<point x="436" y="235" type="curve" smooth="yes"/>
			<point x="432" y="248"/>
			<point x="392" y="236"/>
			<point x="389" y="227" type="curve"/>
			<point x="397" y="57" type="line"/>
			<point x="457" y="12"/>
			<point x="521" y="-9"/>
			<point x="594" y="-9" type="curve" smooth="yes"/>
			<point x="719" y="-9"/>
			<point x="866" y="75"/>
			<point x="872" y="225" type="curve" smooth="yes"/>
			<point x="876" y="363"/>
			<point x="761" y="457"/>
			<point x="667" y="467" type="curve"/>
			<point x="859" y="725" type="line"/>
			<point x="844" y="760" type="line"/>
			<point x="183" y="760" type="line" name="_corner03"/>
		</contour>
	</outline>
</glyph>
<glyph name="emdash" format="2">
	<advance width="871"/>
	<unicode hex="2014"/>
	<outline>
		<contour>
			<point x="91" y="290" type="line"/>
			<point x="91" y="230" type="line" name="_corner00"/>
			<point x="780" y="230" type="line"/>
			<point x="780" y="290" type="line" name="_corner01"/>
		</contour>
	</outline>
</glyph>
<glyph name="perthousand" format="2">
	<advance width="1392"/>
	<unicode hex="2030"/>
	<outline>
		<contour>
			<point x="150" y="-20" type="line" name="_corner01"/>
			<point x="850" y="730" type="line"/>
			<point x="795" y="780" type="line" name="_corner00"/>
			<point x="95" y="30" type="line"/>
		</contour>
		<contour>
			<point x="208" y="380" type="curve" smooth="yes"/>
			<point x="317" y="380"/>
			<point x="413" y="460"/>
			<point x="421" y="580" type="curve" smooth="yes"/>
			<point x="429" y="700"/>
			<point x="345" y="780"/>
			<point x="234" y="780" type="curve" smooth="yes"/>
			<point x="125" y="780"/>
			<point x="29" y="700"/>
			<point x="21" y="580" type="curve" smooth="yes"/>
			<point x="13" y="460"/>
			<point x="97" y="380"/>
		</contour>
		<contour>
			<point x="230" y="455" type="curve" smooth="yes"/>
			<point x="161" y="455"/>
			<point x="106" y="501"/>
			<point x="101" y="580" type="curve" smooth="yes"/>
			<point x="96" y="659"/>
			<point x="144" y="705"/>
			<point x="212" y="705" type="curve" smooth="yes"/>
			<point x="281" y="705"/>
			<point x="336" y="659"/>
			<point x="341" y="580" type="curve" smooth="yes"/>
			<point x="346" y="501"/>
			<point x="298" y="455"/>
		</contour>
		<contour>
			<point x="708" y="-20" type="curve" smooth="yes"/>
			<point x="817" y="-20"/>
			<point x="913" y="60"/>
			<point x="921" y="180" type="curve" smooth="yes"/>
			<point x="929" y="300"/>
			<point x="845" y="380"/>
			<point x="734" y="380" type="curve" smooth="yes"/>
			<point x="625" y="380"/>
			<point x="529" y="300"/>
			<point x="521" y="180" type="curve" smooth="yes"/>
			<point x="513" y="60"/>
			<point x="597" y="-20"/>
		</contour>
		<contour>
			<point x="730" y="55" type="curve" smooth="yes"/>
			<point x="661" y="55"/>
			<point x="606" y="101"/>
			<point x="601" y="180" type="curve" smooth="yes"/>
			<point x="596" y="259"/>
			<point x="644" y="305"/>
			<point x="712" y="305" type="curve" smooth="yes"/>
			<point x="781" y="305"/>
			<point x="836" y="259"/>
			<point x="841" y="180" type="curve" smooth="yes"/>
			<point x="846" y="101"/>
			<point x="798" y="55"/>
		</contour>
		<contour>
			<point x="1158" y="-20" type="curve" smooth="yes"/>
			<point x="1267" y="-20"/>
			<point x="1363" y="60"/>
			<point x="1371" y="180" type="curve" smooth="yes"/>
			<point x="1379" y="300"/>
			<point x="1295" y="380"/>
			<point x="1184" y="380" type="curve" smooth="yes"/>
			<point x="1075" y="380"/>
			<point x="979" y="300"/>
			<point x="971" y="180" type="curve" smooth="yes"/>
			<point x="963" y="60"/>
			<point x="1047" y="-20"/>
		</contour>
		<contour>
			<point x="1180" y="55" type="curve" smooth="yes"/>
			<point x="1111" y="55"/>
			<point x="1056" y="101"/>
			<point x="1051" y="180" type="curve" smooth="yes"/>
			<point x="1046" y="259"/>
			<point x="1094" y="305"/>
			<point x="1162" y="305" type="curve" smooth="yes"/>
			<point x="1231" y="305"/>
			<point x="1286" y="259"/>
			<point x="1291" y="180" type="curve" smooth="yes"/>
			<point x="1296" y="101"/>
			<point x="1248" y="55"/>
		</contour>
	</outline>
</glyph>
<glyph name="guilsinglleft" format="2">
	<advance width="320"/>
	<unicode hex="2039"/>
	<outline>
		<contour>
			<point x="229" y="70" type="curve" smooth="yes"/>
			<point x="67" y="241" type="line" smooth="yes"/>
			<point x="44" y="266"/>
			<point x="44" y="274"/>
			<point x="67" y="299" type="curve" smooth="yes"/>
			<point x="229" y="470" type="line" smooth="yes"/>
			<point x="241" y="483"/>
			<point x="277" y="454"/>
			<point x="269" y="440" type="curve" smooth="yes"/>
			<point x="164" y="270" type="line"/>
			<point x="269" y="100" type="line" smooth="yes"/>
			<point x="277" y="86"/>
			<point x="241" y="57"/>
		</contour>
	</outline>
</glyph>
<glyph name="euro" format="2">
	<advance width="778"/>
	<unicode hex="20AC"/>
	<outline>
		<contour>
			<point x="37" y="410" type="line" name="_corner05"/>
			<point x="517" y="410" type="line"/>
			<point x="527" y="470" type="line" name="_corner02"/>
			<point x="238" y="470" type="line"/>
			<point x="277" y="744"/>
			<point x="561" y="801"/>
			<point x="686" y="555" type="curve"/>
			<point x="721" y="565" type="line" name="_corner03"/>
			<point x="686" y="720" type="line"/>
			<point x="450" y="844"/>
			<point x="189" y="720"/>
			<point x="136" y="470" type="curve"/>
			<point x="47" y="470" type="line"/>
		</contour>
		<contour>
			<point x="507" y="330" type="line" name="_corner01"/>
			<point x="27" y="330" type="line"/>
			<point x="17" y="270" type="line" name="_corner00"/>
			<point x="136" y="270" type="line"/>
			<point x="196" y="-20"/>
			<point x="525" y="-121"/>
			<point x="736" y="145" type="curve"/>
			<point x="701" y="179" type="line" name="_corner04"/>
			<point x="536" y="-15"/>
			<point x="310" y="56"/>
			<point x="250" y="270" type="curve"/>
			<point x="497" y="270" type="line"/>
		</contour>
	</outline>
</glyph>
<glyph name="numero" format="2">
	<advance width="1372"/>
	<unicode hex="2116"/>
	<outline>
		<component base="N"/>
		<component base="zero.osf" xOffset="750" yOffset="150"/>
		<contour>
			<point x="847" y="80" type="line"/>
			<point x="847" y="0" type="line" name="_corner00"/>
			<point x="1307" y="0" type="line"/>
			<point x="1307" y="80" type="line" name="_corner01"/>
			<point x="1067" y="60" type="line"/>
		</contour>
	</outline>
</glyph>
<glyph name="trademark" format="2">
	<advance width="919"/>
	<unicode hex="2122"/>
	<outline>
		<contour>
			<point x="63" y="765" type="line" name="_corner01"/>
			<point x="50" y="665" type="line" smooth="yes"/>
			<point x="49" y="660"/>
			<point x="77" y="649"/>
			<point x="81" y="658" type="curve" smooth="yes"/>
			<point x="106" y="708"/>
			<point x="122" y="720"/>
			<point x="143" y="720" type="curve" smooth="yes"/>
			<point x="187" y="720"/>
			<point x="191" y="720"/>
			<point x="191" y="695" type="curve" smooth="yes"/>
			<point x="191" y="490" type="line" smooth="yes"/>
			<point x="191" y="454"/>
			<point x="186" y="453"/>
			<point x="154" y="434" type="curve" smooth="yes"/>
			<point x="150" y="432"/>
			<point x="154" y="410"/>
			<point x="159" y="410" type="curve" smooth="yes"/>
			<point x="200" y="410" type="line"/>
			<point x="247" y="410" type="line" smooth="yes"/>
			<point x="249" y="410"/>
			<point x="250" y="410"/>
			<point x="252" y="410" type="curve" smooth="yes"/>
			<point x="293" y="410" type="line" smooth="yes"/>
			<point x="298" y="410"/>
			<point x="302" y="432"/>
			<point x="298" y="434" type="curve" smooth="yes"/>
			<point x="266" y="453"/>
			<point x="261" y="454"/>
			<point x="261" y="490" type="curve" smooth="yes"/>
			<point x="261" y="695" type="line" smooth="yes"/>
			<point x="261" y="720"/>
			<point x="265" y="720"/>
			<point x="308" y="720" type="curve" smooth="yes"/>
			<point x="329" y="720"/>
			<point x="346" y="709"/>
			<point x="370" y="658" type="curve" smooth="yes"/>
			<point x="375" y="649"/>
			<point x="402" y="660"/>
			<point x="401" y="665" type="curve" smooth="yes"/>
			<point x="388" y="765" type="line" name="_corner00"/>
			<point x="313" y="760" type="line"/>
			<point x="138" y="760" type="line"/>
		</contour>
		<contour>
			<point x="431" y="434" type="curve" smooth="yes"/>
			<point x="427" y="432"/>
			<point x="431" y="410"/>
			<point x="436" y="410" type="curve" smooth="yes"/>
			<point x="482" y="410" type="line"/>
			<point x="501" y="410" type="line"/>
			<point x="547" y="410" type="line" smooth="yes"/>
			<point x="552" y="410"/>
			<point x="557" y="432"/>
			<point x="552" y="434" type="curve"/>
			<point x="521" y="453"/>
			<point x="515" y="454"/>
			<point x="514" y="490" type="curve" smooth="yes"/>
			<point x="510" y="670" type="line"/>
			<point x="619" y="444" type="line" smooth="yes"/>
			<point x="623" y="437"/>
			<point x="664" y="437"/>
			<point x="667" y="444" type="curve" smooth="yes"/>
			<point x="769" y="673" type="line"/>
			<point x="766" y="490" type="line" smooth="yes"/>
			<point x="765" y="454"/>
			<point x="760" y="453"/>
			<point x="728" y="434" type="curve" smooth="yes"/>
			<point x="724" y="432"/>
			<point x="728" y="410"/>
			<point x="733" y="410" type="curve" smooth="yes"/>
			<point x="779" y="410" type="line"/>
			<point x="816" y="410" type="line"/>
			<point x="862" y="410" type="line" smooth="yes"/>
			<point x="867" y="410"/>
			<point x="871" y="432"/>
			<point x="867" y="434" type="curve" smooth="yes"/>
			<point x="835" y="453"/>
			<point x="830" y="454"/>
			<point x="830" y="490" type="curve" smooth="yes"/>
			<point x="830" y="680" type="line" smooth="yes"/>
			<point x="830" y="715"/>
			<point x="835" y="716"/>
			<point x="867" y="735" type="curve" smooth="yes"/>
			<point x="871" y="738"/>
			<point x="867" y="760"/>
			<point x="862" y="760" type="curve" smooth="yes"/>
			<point x="834" y="760"/>
			<point x="826" y="759"/>
			<point x="816" y="759" type="curve" smooth="yes"/>
			<point x="760" y="759" type="line"/>
			<point x="658" y="532" type="line"/>
			<point x="550" y="759" type="line"/>
			<point x="482" y="759" type="line" smooth="yes"/>
			<point x="472" y="759"/>
			<point x="464" y="760"/>
			<point x="436" y="760" type="curve" smooth="yes"/>
			<point x="431" y="760"/>
			<point x="427" y="738"/>
			<point x="431" y="735" type="curve" smooth="yes"/>
			<point x="463" y="716"/>
			<point x="468" y="715"/>
			<point x="468" y="680" type="curve" smooth="yes"/>
			<point x="468" y="490" type="line" smooth="yes"/>
			<point x="468" y="454"/>
			<point x="463" y="453"/>
		</contour>
	</outline>
</glyph>
<glyph name="minus" format="2">
	<advance width="622"/>
	<unicode hex="2212"/>
	<outline>
		<contour>
			<point x="61" y="295" type="line"/>
			<point x="61" y="225" type="line" name="_corner00"/>
			<point x="311" y="230" type="line"/>
			<point x="561" y="225" type="line"/>
			<point x="561" y="295" type="line" name="_corner01"/>
			<point x="311" y="290" type="line"/>
		</contour>
	</outline>
</glyph>
<glyph name="Q.ss01" format="2">
	<advance width="1293"/>
	<anchor x="480" y="0" name="bottom"/>
	<anchor x="480" y="760" name="top"/>
	<outline>
		<contour>
			<point x="466" y="-10" type="curve" smooth="yes"/>
			<point x="681" y="-10"/>
			<point x="860" y="163"/>
			<point x="860" y="395" type="curve" smooth="yes"/>
			<point x="860" y="613"/>
			<point x="699" y="770"/>
			<point x="494" y="770" type="curve" smooth="yes"/>
			<point x="279" y="770"/>
			<point x="100" y="597"/>
			<point x="100" y="365" type="curve" smooth="yes"/>
			<point x="100" y="147"/>
			<point x="261" y="-10"/>
		</contour>
		<contour>
			<point x="497" y="50" type="curve" smooth="yes"/>
			<point x="355" y="50"/>
			<point x="208" y="169"/>
			<point x="208" y="406" type="curve" smooth="yes"/>
			<point x="208" y="609"/>
			<point x="334" y="710"/>
			<point x="464" y="710" type="curve" smooth="yes"/>
			<point x="606" y="710"/>
			<point x="753" y="591"/>
			<point x="753" y="354" type="curve" smooth="yes"/>
			<point x="753" y="151"/>
			<point x="627" y="50"/>
		</contour>
		<contour>
			<point x="420" y="44" type="line"/>
			<point x="964" y="-255"/>
			<point x="978" y="-317"/>
			<point x="1189" y="-214" type="curve"/>
			<point x="1164" y="-169" type="line" name="_corner00"/>
			<point x="1058" y="-211"/>
			<point x="1052" y="-206"/>
			<point x="526" y="92" type="curve"/>
		</contour>
	</outline>
</glyph>
<glyph name="_corner.beak" format="2">
	<advance width="600"/>
	<anchor x="0" y="110" name="left"/>
	<anchor x="0" y="0" name="origin"/>
	<anchor x="30" y="0" name="right"/>
	<outline>
		<contour>
			<point x="0" y="115" type="move"/>
			<point x="-2" y="80"/>
			<point x="4" y="73"/>
			<point x="-65" y="30" type="curve" smooth="yes"/>
			<point x="-77" y="23"/>
			<point x="-61" y="-4"/>
			<point x="-51" y="-4" type="curve"/>
			<point x="-36" y="-3"/>
			<point x="20" y="-1"/>
			<point x="35" y="0" type="curve"/>
		</contour>
	</outline>
</glyph>
<glyph name="_corner.mitre" format="2">
	<advance width="600"/>
	<outline>
		<contour>
			<point x="10" y="0" type="move"/>
			<point x="0" y="10" type="line"/>
		</contour>
	</outline>
</glyph>
<glyph name="_corner.serif" format="2">
	<advance width="600"/>
	<anchor x="0" y="40" name="left"/>
	<anchor x="0" y="0" name="origin"/>
	<anchor x="20" y="0" name="right"/>
	<outline>
		<contour>
			<point x="0" y="125" type="move"/>
			<point x="0" y="60"/>
			<point x="-9" y="63"/>
			<point x="-98" y="28" type="curve" smooth="yes"/>
			<point x="-109" y="24"/>
			<point x="-103" y="-1"/>
			<point x="-90" y="-1" type="curve" smooth="yes"/>
			<point x="-10" y="-1"/>
			<point x="10" y="0"/>
			<point x="35" y="0" type="curve"/>
		</contour>
	</outline>
</glyph>
<glyph name="caroncomb.alt" format="2">
	<advance width="228"/>
	<anchor x="30" y="780" name="_topright"/>
	<outline>
		<contour>
			<point x="88" y="568" type="curve"/>
			<point x="138" y="668"/>
			<point x="173" y="739"/>
			<point x="178" y="758" type="curve"/>
			<point x="170" y="779"/>
			<point x="100" y="799"/>
			<point x="82" y="784" type="curve"/>
			<point x="77" y="766"/>
			<point x="62" y="688"/>
			<point x="50" y="581" type="curve"/>
			<point x="47" y="569"/>
			<point x="83" y="559"/>
		</contour>
	</outline>
</glyph>
<glyph name="eight.lf" format="2">
	<advance width="560"/>
	<outline>
		<contour>
			<point x="271" y="-10" type="curve" smooth="yes"/>
			<point x="385" y="-10"/>
			<point x="510" y="61"/>
			<point x="510" y="190" type="curve" smooth="yes"/>
			<point x="510" y="392"/>
			<point x="170" y="486"/>
			<point x="170" y="610" type="curve" smooth="yes"/>
			<point x="170" y="679"/>
			<point x="220" y="723"/>
			<point x="276" y="723" type="curve" smooth="yes"/>
			<point x="330" y="723"/>
			<point x="390" y="680"/>
			<point x="390" y="600" type="curve" smooth="yes"/>
			<point x="390" y="430"/>
			<point x="50" y="380"/>
			<point x="50" y="180" type="curve" smooth="yes"/>
			<point x="50" y="50"/>
			<point x="166" y="-10"/>
		</contour>
		<contour>
			<point x="420" y="88"/>
			<point x="353" y="38"/>
			<point x="282" y="38" type="curve" smooth="yes"/>
			<point x="223" y="38"/>
			<point x="140" y="85"/>
			<point x="140" y="175" type="curve" smooth="yes"/>
			<point x="140" y="375"/>
			<point x="480" y="420"/>
			<point x="480" y="600" type="curve" smooth="yes"/>
			<point x="480" y="705"/>
			<point x="392" y="770"/>
			<point x="296" y="770" type="curve" smooth="yes"/>
			<point x="192" y="770"/>
			<point x="80" y="707"/>
			<point x="80" y="600" type="curve" smooth="yes"/>
			<point x="80" y="410"/>
			<point x="420" y="345"/>
			<point x="420" y="165" type="curve" smooth="yes"/>
		</contour>
	</outline>
</glyph>
<glyph name="f.lig_comp" format="2">
	<advance width="358"/>
	<anchor x="179" y="0" name="bottom"/>
	<anchor x="179" y="800" name="top"/>
	<outline>
		<contour>
			<point x="122" y="517" type="curve" smooth="yes"/>
			<point x="122" y="0" type="line" name="_corner00"/>
			<point x="207" y="0" type="line" name="_corner01"/>
			<point x="207" y="559" type="line" smooth="yes"/>
			<point x="207" y="695"/>
			<point x="291" y="805"/>
			<point x="482" y="680" type="curve"/>
			<point x="518" y="763" type="line"/>
			<point x="400" y="877"/>
			<point x="122" y="786"/>
		</contour>
		<contour>
			<point x="41" y="480" type="line"/>
			<point x="41" y="430" type="line" name="_corner02"/>
			<point x="361" y="430" type="line"/>
			<point x="361" y="490" type="line" name="_corner03"/>
			<point x="131" y="490" type="line"/>
		</contour>
	</outline>
</glyph>
<glyph name="f_i.liga" format="2">
	<advance width="676"/>
	<anchor x="169" y="0" name="bottom_1"/>
	<anchor x="507" y="0" name="bottom_2"/>
	<anchor x="338" y="0" name="caret_1"/>
	<anchor x="169" y="800" name="top_1"/>
	<anchor x="507" y="800" name="top_2"/>
	<outline>
		<contour>
			<point x="324" y="718" type="curve" smooth="yes"/>
			<point x="434" y="718"/>
			<point x="503" y="635"/>
			<point x="523" y="635" type="curve" smooth="yes"/>
			<point x="543" y="635"/>
			<point x="585" y="695"/>
			<point x="573" y="710" type="curve" smooth="yes"/>
			<point x="551" y="738"/>
			<point x="463" y="800"/>
			<point x="386" y="800" type="curve" smooth="yes"/>
			<point x="296" y="800"/>
			<point x="122" y="716"/>
			<point x="122" y="507" type="curve" smooth="yes"/>
			<point x="122" y="0" type="line" name="_corner05"/>
			<point x="207" y="0" type="line" name="_corner06"/>
			<point x="207" y="559" type="line" smooth="yes"/>
			<point x="207" y="655"/>
			<point x="244" y="718"/>
		</contour>
		<contour>
			<point x="41" y="480" type="line"/>
			<point x="41" y="430" type="line" name="_corner00"/>
			<point x="531" y="430" type="line"/>
			<point x="531" y="490" type="line" name="_corner01"/>
			<point x="131" y="490" type="line"/>
		</contour>
		<contour>
			<point x="478" y="0" type="line" name="_corner04"/>
			<point x="563" y="0" type="line" name="_corner02"/>
			<point x="563" y="515" type="line" name="_corner03"/>
			<point x="533" y="503"/>
			<point x="509" y="492"/>
			<point x="478" y="480" type="curve"/>
		</contour>
	</outline>
</glyph>
<glyph name="f_j.liga" format="2">
	<advance width="664"/>
	<anchor x="166" y="0" name="bottom_1"/>
	<anchor x="498" y="0" name="bottom_2"/>
	<anchor x="332" y="0" name="caret_1"/>
	<anchor x="166" y="800" name="top_1"/>
	<anchor x="498" y="800" name="top_2"/>
	<outline>
		<contour>
			<point x="324" y="718" type="curve" smooth="yes"/>
			<point x="434" y="718"/>
			<point x="503" y="635"/>
			<point x="523" y="635" type="curve" smooth="yes"/>
			<point x="543" y="635"/>
			<point x="585" y="695"/>
			<point x="573" y="710" type="curve" smooth="yes"/>
			<point x="551" y="738"/>
			<point x="463" y="800"/>
			<point x="386" y="800" type="curve" smooth="yes"/>
			<point x="296" y="800"/>
			<point x="122" y="716"/>
			<point x="122" y="507" type="curve" smooth="yes"/>
			<point x="122" y="0" type="line" name="_corner00"/>
			<point x="207" y="0" type="line" name="_corner01"/>
			<point x="207" y="559" type="line" smooth="yes"/>
			<point x="207" y="655"/>
			<point x="244" y="718"/>
		</contour>
		<contour>
			<point x="41" y="480" type="line"/>
			<point x="41" y="430" type="line" name="_corner02"/>
			<point x="541" y="430" type="line"/>
			<point x="541" y="490" type="line" name="_corner03"/>
			<point x="131" y="490" type="line"/>
		</contour>
		<contour>
			<point x="392" y="-222" type="curve"/>
			<point x="413" y="-260" type="line" name="_corner04"/>
			<point x="538" y="-193"/>
			<point x="579" y="-138"/>
			<point x="579" y="-27" type="curve" smooth="yes"/>
			<point x="579" y="515" type="line" name="_corner05"/>
			<point x="549" y="503"/>
			<point x="525" y="492"/>
			<point x="494" y="480" type="curve"/>
			<point x="494" y="-29" type="line" smooth="yes"/>
			<point x="494" y="-124"/>
			<point x="479" y="-167"/>
		</contour>
	</outline>
</glyph>
<glyph name="five.lf" format="2">
	<advance width="543"/>
	<outline>
		<contour>
			<point x="72" y="-6" type="curve" smooth="yes"/>
			<point x="305" y="-47"/>
			<point x="462" y="105"/>
			<point x="462" y="259" type="curve" smooth="yes"/>
			<point x="462" y="361"/>
			<point x="399" y="506"/>
			<point x="182" y="509" type="curve"/>
			<point x="211" y="663" type="line"/>
			<point x="454" y="663" type="line" name="_corner00"/>
			<point x="492" y="783" type="line"/>
			<point x="457" y="807" type="line" name="_corner01"/>
			<point x="432" y="777"/>
			<point x="430" y="759"/>
			<point x="348" y="759" type="curve" smooth="yes"/>
			<point x="178" y="759" type="line"/>
			<point x="100" y="415" type="line" name="_corner02"/>
			<point x="282" y="429"/>
			<point x="366" y="348"/>
			<point x="366" y="221" type="curve" smooth="yes"/>
			<point x="366" y="113"/>
			<point x="247" y="0"/>
			<point x="90" y="104" type="curve" smooth="yes"/>
			<point x="55" y="127"/>
			<point x="29" y="2"/>
		</contour>
	</outline>
</glyph>
<glyph name="five.osf" format="2">
	<advance width="470"/>
	<outline>
		<contour>
			<point x="57" y="185" type="line" name="_corner02"/>
			<point x="374" y="165"/>
			<point x="352" y="-226"/>
			<point x="35" y="-206" type="curve" smooth="yes"/>
			<point x="17" y="-205"/>
			<point x="16" y="-255"/>
			<point x="30" y="-256" type="curve" smooth="yes"/>
			<point x="426" y="-291"/>
			<point x="505" y="214"/>
			<point x="129" y="269" type="curve"/>
			<point x="163" y="393" type="line"/>
			<point x="371" y="393" type="line" name="_corner00"/>
			<point x="409" y="523" type="line"/>
			<point x="374" y="547" type="line" name="_corner01"/>
			<point x="349" y="517"/>
			<point x="347" y="499"/>
			<point x="265" y="499" type="curve" smooth="yes"/>
			<point x="125" y="499" type="line"/>
		</contour>
	</outline>
</glyph>
<glyph name="four.lf" format="2">
	<advance width="644"/>
	<outline>
		<contour>
			<point x="457" y="0" type="line"/>
			<point x="457" y="220" type="line"/>
			<point x="585" y="220" type="line"/>
			<point x="595" y="320" type="line" name="_corner00"/>
			<point x="457" y="305" type="line"/>
			<point x="457" y="600" type="line"/>
			<point x="460" y="760" type="line" smooth="yes"/>
			<point x="460" y="775"/>
			<point x="415" y="780"/>
			<point x="409" y="770" type="curve" smooth="yes"/>
			<point x="333" y="648" type="line"/>
			<point x="55" y="268" type="line" smooth="yes"/>
			<point x="45" y="254"/>
			<point x="51" y="220"/>
			<point x="67" y="220" type="curve" smooth="yes"/>
			<point x="388" y="220" type="line"/>
			<point x="388" y="303" type="line"/>
			<point x="146" y="300" type="line"/>
			<point x="362" y="600" type="line"/>
			<point x="362" y="0" type="line"/>
		</contour>
	</outline>
</glyph>
<glyph name="four.osf" format="2">
	<advance width="584"/>
	<outline>
		<contour>
			<point x="407" y="-250" type="line"/>
			<point x="407" y="20" type="line"/>
			<point x="535" y="20" type="line"/>
			<point x="545" y="120" type="line" name="_corner00"/>
			<point x="407" y="105" type="line"/>
			<point x="407" y="340" type="line"/>
			<point x="410" y="500" type="line" smooth="yes"/>
			<point x="410" y="515"/>
			<point x="366" y="520"/>
			<point x="359" y="510" type="curve" smooth="yes"/>
			<point x="283" y="393" type="line"/>
			<point x="45" y="68" type="line" smooth="yes"/>
			<point x="35" y="54"/>
			<point x="41" y="20"/>
			<point x="57" y="20" type="curve" smooth="yes"/>
			<point x="338" y="20" type="line"/>
			<point x="338" y="103" type="line"/>
			<point x="136" y="100" type="line"/>
			<point x="322" y="355" type="line"/>
			<point x="322" y="-250" type="line"/>
		</contour>
	</outline>
</glyph>
<glyph name="nine.lf" format="2">
	<advance width="620"/>
	<outline>
		<contour>
			<point x="143" y="-10" type="curve"/>
			<point x="174" y="-44" type="line" name="_corner00"/>
			<point x="443" y="120"/>
			<point x="570" y="330"/>
			<point x="570" y="500" type="curve" smooth="yes"/>
			<point x="570" y="656"/>
			<point x="460" y="768"/>
			<point x="321" y="768" type="curve" smooth="yes"/>
			<point x="150" y="768"/>
			<point x="50" y="643"/>
			<point x="50" y="513" type="curve" smooth="yes"/>
			<point x="50" y="392"/>
			<point x="138" y="265"/>
			<point x="284" y="265" type="curve" smooth="yes"/>
			<point x="336" y="265"/>
			<point x="401" y="282"/>
			<point x="449" y="319" type="curve"/>
			<point x="455" y="382" type="line"/>
			<point x="428" y="343"/>
			<point x="369" y="329"/>
			<point x="332" y="329" type="curve" smooth="yes"/>
			<point x="103" y="329"/>
			<point x="110" y="709"/>
			<point x="302" y="709" type="curve" smooth="yes"/>
			<point x="380" y="709"/>
			<point x="463" y="616"/>
			<point x="463" y="483" type="curve" smooth="yes"/>
			<point x="463" y="334"/>
			<point x="365" y="145"/>
		</contour>
	</outline>
</glyph>
<glyph name="nine.osf" format="2">
	<advance width="590"/>
	<outline>
		<contour>
			<point x="152" y="-228" type="curve"/>
			<point x="180" y="-266" type="line" name="_corner00"/>
			<point x="408" y="-137"/>
			<point x="530" y="85"/>
			<point x="530" y="230" type="curve" smooth="yes"/>
			<point x="530" y="373"/>
			<point x="445" y="506"/>
			<point x="287" y="506" type="curve" smooth="yes"/>
			<point x="155" y="506"/>
			<point x="49" y="416"/>
			<point x="49" y="280" type="curve" smooth="yes"/>
			<point x="49" y="86"/>
			<point x="274" y="-13"/>
			<point x="424" y="127" type="curve"/>
			<point x="427" y="180" type="line" name="_corner01"/>
			<point x="307" y="58"/>
			<point x="147" y="157"/>
			<point x="147" y="302" type="curve" smooth="yes"/>
			<point x="147" y="502"/>
			<point x="430" y="520"/>
			<point x="430" y="249" type="curve" smooth="yes"/>
			<point x="430" y="102"/>
			<point x="337" y="-94"/>
		</contour>
	</outline>
</glyph>
<glyph name="one.lf" format="2">
	<advance width="412"/>
	<outline>
		<contour>
			<point x="158" y="596" type="curve"/>
			<point x="158" y="0" type="line" name="_corner00"/>
			<point x="258" y="0" type="line" name="_corner01"/>
			<point x="258" y="770" type="line" name="_corner02"/>
			<point x="174" y="741" type="line" smooth="yes"/>
			<point x="150" y="733"/>
			<point x="116" y="722"/>
			<point x="59" y="706" type="curve" smooth="yes"/>
			<point x="46" y="702"/>
			<point x="49" y="675"/>
			<point x="60" y="674" type="curve" smooth="yes"/>
			<point x="157" y="662"/>
			<point x="158" y="667"/>
		</contour>
	</outline>
</glyph>
<glyph name="seven.lf" format="2">
	<advance width="560"/>
	<outline>
		<contour>
			<point x="91" y="760" type="line" name="_corner01"/>
			<point x="50" y="580" type="line"/>
			<point x="90" y="571" type="line" name="_corner00"/>
			<point x="132" y="663"/>
			<point x="139" y="665"/>
			<point x="241" y="665" type="curve" smooth="yes"/>
			<point x="441" y="665" type="line"/>
			<point x="159" y="0" type="line" name="_corner02"/>
			<point x="277" y="0" type="line"/>
			<point x="510" y="725" type="line"/>
			<point x="495" y="760" type="line"/>
		</contour>
	</outline>
</glyph>
<glyph name="seven.osf" format="2">
	<advance width="540"/>
	<outline>
		<contour>
			<point x="61" y="500" type="line" name="_corner01"/>
			<point x="30" y="350" type="line"/>
			<point x="75" y="341" type="line" name="_corner00"/>
			<point x="107" y="403"/>
			<point x="109" y="405"/>
			<point x="211" y="405" type="curve" smooth="yes"/>
			<point x="405" y="405" type="line"/>
			<point x="138" y="-250" type="line" name="_corner02"/>
			<point x="256" y="-250" type="line"/>
			<point x="480" y="475" type="line"/>
			<point x="465" y="510" type="line"/>
			<point x="260" y="500" type="line"/>
		</contour>
	</outline>
</glyph>
<glyph name="six.lf" format="2">
	<advance width="600"/>
	<outline>
		<contour>
			<point x="457" y="772" type="curve"/>
			<point x="426" y="806" type="line" name="_corner00"/>
			<point x="157" y="642"/>
			<point x="50" y="442"/>
			<point x="50" y="272" type="curve" smooth="yes"/>
			<point x="50" y="116"/>
			<point x="140" y="-6"/>
			<point x="279" y="-6" type="curve" smooth="yes"/>
			<point x="450" y="-6"/>
			<point x="550" y="119"/>
			<point x="550" y="249" type="curve" smooth="yes"/>
			<point x="550" y="370"/>
			<point x="462" y="497"/>
			<point x="316" y="497" type="curve" smooth="yes"/>
			<point x="264" y="497"/>
			<point x="209" y="480"/>
			<point x="161" y="443" type="curve"/>
			<point x="155" y="380" type="line"/>
			<point x="182" y="419"/>
			<point x="231" y="433"/>
			<point x="268" y="433" type="curve" smooth="yes"/>
			<point x="497" y="433"/>
			<point x="490" y="53"/>
			<point x="308" y="53" type="curve" smooth="yes"/>
			<point x="200" y="53"/>
			<point x="157" y="156"/>
			<point x="157" y="289" type="curve" smooth="yes"/>
			<point x="157" y="438"/>
			<point x="235" y="617"/>
		</contour>
	</outline>
</glyph>
<glyph name="six.osf" format="2">
	<advance width="580"/>
	<outline>
		<contour>
			<point x="428" y="732" type="curve"/>
			<point x="397" y="766" type="line" name="_corner00"/>
			<point x="199" y="644"/>
			<point x="45" y="430"/>
			<point x="45" y="256" type="curve" smooth="yes"/>
			<point x="45" y="105"/>
			<point x="144" y="-6"/>
			<point x="280" y="-6" type="curve" smooth="yes"/>
			<point x="427" y="-6"/>
			<point x="520" y="102"/>
			<point x="520" y="233" type="curve" smooth="yes"/>
			<point x="520" y="368"/>
			<point x="409" y="447"/>
			<point x="317" y="447" type="curve" smooth="yes"/>
			<point x="265" y="447"/>
			<point x="210" y="430"/>
			<point x="162" y="393" type="curve"/>
			<point x="156" y="330" type="line"/>
			<point x="183" y="369"/>
			<point x="232" y="383"/>
			<point x="269" y="383" type="curve" smooth="yes"/>
			<point x="351" y="383"/>
			<point x="420" y="318"/>
			<point x="420" y="211" type="curve" smooth="yes"/>
			<point x="420" y="141"/>
			<point x="382" y="53"/>
			<point x="299" y="53" type="curve" smooth="yes"/>
			<point x="202" y="53"/>
			<point x="150" y="136"/>
			<point x="150" y="259" type="curve" smooth="yes"/>
			<point x="150" y="436"/>
			<point x="264" y="611"/>
		</contour>
	</outline>
</glyph>
<glyph name="three.lf" format="2">
	<advance width="498"/>
	<outline>
		<contour>
			<point x="59" y="661" type="curve"/>
			<point x="90" y="631" type="line" name="_corner00"/>
			<point x="127" y="664"/>
			<point x="164" y="677"/>
			<point x="197" y="677" type="curve" smooth="yes"/>
			<point x="266" y="677"/>
			<point x="316" y="628"/>
			<point x="316" y="564" type="curve" smooth="yes"/>
			<point x="316" y="505"/>
			<point x="273" y="441"/>
			<point x="160" y="415" type="curve"/>
			<point x="171" y="369" type="line" name="_corner01"/>
			<point x="280" y="389"/>
			<point x="347" y="307"/>
			<point x="347" y="219" type="curve" smooth="yes"/>
			<point x="347" y="125"/>
			<point x="301" y="35"/>
			<point x="90" y="92" type="curve" smooth="yes"/>
			<point x="56" y="101"/>
			<point x="34" y="10"/>
			<point x="65" y="0" type="curve" smooth="yes"/>
			<point x="206" y="-43"/>
			<point x="448" y="62"/>
			<point x="448" y="248" type="curve" smooth="yes"/>
			<point x="448" y="335"/>
			<point x="393" y="407"/>
			<point x="305" y="433" type="curve"/>
			<point x="371" y="467"/>
			<point x="424" y="521"/>
			<point x="424" y="609" type="curve" smooth="yes"/>
			<point x="424" y="702"/>
			<point x="344" y="770"/>
			<point x="246" y="770" type="curve" smooth="yes"/>
			<point x="183" y="770"/>
			<point x="114" y="737"/>
		</contour>
	</outline>
</glyph>
<glyph name="three.osf" format="2">
	<advance width="485"/>
	<outline>
		<contour>
			<point x="45" y="-266" type="curve" smooth="yes"/>
			<point x="278" y="-276"/>
			<point x="425" y="-111"/>
			<point x="425" y="23" type="curve" smooth="yes"/>
			<point x="425" y="95"/>
			<point x="383" y="157"/>
			<point x="288" y="179" type="curve"/>
			<point x="344" y="214"/>
			<point x="387" y="260"/>
			<point x="387" y="339" type="curve" smooth="yes"/>
			<point x="387" y="432"/>
			<point x="307" y="510"/>
			<point x="209" y="510" type="curve" smooth="yes"/>
			<point x="146" y="510"/>
			<point x="77" y="477"/>
			<point x="22" y="401" type="curve"/>
			<point x="53" y="371" type="line" name="_corner00"/>
			<point x="90" y="404"/>
			<point x="127" y="427"/>
			<point x="160" y="427" type="curve" smooth="yes"/>
			<point x="249" y="427"/>
			<point x="289" y="358"/>
			<point x="289" y="294" type="curve" smooth="yes"/>
			<point x="289" y="235"/>
			<point x="236" y="171"/>
			<point x="123" y="145" type="curve"/>
			<point x="134" y="101" type="line" name="_corner01"/>
			<point x="263" y="131"/>
			<point x="327" y="56"/>
			<point x="327" y="-23" type="curve" smooth="yes"/>
			<point x="327" y="-97"/>
			<point x="272" y="-173"/>
			<point x="162" y="-173" type="curve" smooth="yes"/>
			<point x="132" y="-173"/>
			<point x="100" y="-168"/>
			<point x="63" y="-156" type="curve" smooth="yes"/>
			<point x="23" y="-142"/>
			<point x="2" y="-264"/>
		</contour>
	</outline>
</glyph>
<glyph name="two.lf" format="2">
	<advance width="599"/>
	<outline>
		<contour>
			<point x="79" y="-1" type="curve" smooth="yes"/>
			<point x="504" y="-1" type="line" name="_corner01"/>
			<point x="547" y="139" type="line"/>
			<point x="514" y="163" type="line" name="_corner02"/>
			<point x="488" y="133"/>
			<point x="474" y="111"/>
			<point x="372" y="105" type="curve" smooth="yes"/>
			<point x="187" y="95" type="line"/>
			<point x="386" y="292"/>
			<point x="503" y="386"/>
			<point x="503" y="533" type="curve" smooth="yes"/>
			<point x="503" y="678"/>
			<point x="399" y="768"/>
			<point x="282" y="768" type="curve" smooth="yes"/>
			<point x="202" y="768"/>
			<point x="116" y="726"/>
			<point x="52" y="631" type="curve"/>
			<point x="83" y="601" type="line" name="_corner00"/>
			<point x="124" y="656"/>
			<point x="182" y="682"/>
			<point x="237" y="682" type="curve" smooth="yes"/>
			<point x="321" y="682"/>
			<point x="399" y="621"/>
			<point x="399" y="509" type="curve" smooth="yes"/>
			<point x="399" y="368"/>
			<point x="268" y="259"/>
			<point x="64" y="49" type="curve" smooth="yes"/>
			<point x="49" y="33"/>
			<point x="64" y="-1"/>
		</contour>
	</outline>
</glyph>
<glyph name="two.osf" format="2">
	<advance width="551"/>
	<outline>
		<contour>
			<point x="78" y="-1" type="curve" smooth="yes"/>
			<point x="453" y="-1" type="line" name="_corner01"/>
			<point x="499" y="119" type="line"/>
			<point x="466" y="143" type="line" name="_corner02"/>
			<point x="439" y="113"/>
			<point x="425" y="90"/>
			<point x="323" y="85" type="curve" smooth="yes"/>
			<point x="228" y="80" type="line"/>
			<point x="281" y="105"/>
			<point x="422" y="198"/>
			<point x="422" y="319" type="curve" smooth="yes"/>
			<point x="422" y="432"/>
			<point x="337" y="510"/>
			<point x="239" y="510" type="curve" smooth="yes"/>
			<point x="176" y="510"/>
			<point x="107" y="477"/>
			<point x="52" y="401" type="curve"/>
			<point x="83" y="371" type="line" name="_corner00"/>
			<point x="125" y="409"/>
			<point x="164" y="425"/>
			<point x="198" y="425" type="curve" smooth="yes"/>
			<point x="287" y="425"/>
			<point x="323" y="363"/>
			<point x="327" y="300" type="curve" smooth="yes"/>
			<point x="335" y="177"/>
			<point x="187" y="105"/>
			<point x="68" y="45" type="curve" smooth="yes"/>
			<point x="54" y="39"/>
			<point x="63" y="-1"/>
		</contour>
	</outline>
</glyph>
<glyph name="zero.lf" format="2">
	<advance width="620"/>
	<outline>
		<contour>
			<point x="304" y="-10" type="curve" smooth="yes"/>
			<point x="448" y="-10"/>
			<point x="565" y="146"/>
			<point x="570" y="380" type="curve" smooth="yes"/>
			<point x="571" y="614"/>
			<point x="456" y="770"/>
			<point x="312" y="770" type="curve" smooth="yes"/>
			<point x="168" y="770"/>
			<point x="51" y="614"/>
			<point x="50" y="380" type="curve" smooth="yes"/>
			<point x="45" y="146"/>
			<point x="160" y="-10"/>
		</contour>
		<contour>
			<point x="332" y="70" type="curve" smooth="yes"/>
			<point x="190" y="70"/>
			<point x="134" y="288"/>
			<point x="134" y="436" type="curve" smooth="yes"/>
			<point x="134" y="593"/>
			<point x="185" y="690"/>
			<point x="284" y="690" type="curve" smooth="yes"/>
			<point x="431" y="690"/>
			<point x="479" y="463"/>
			<point x="479" y="312" type="curve" smooth="yes"/>
			<point x="479" y="162"/>
			<point x="428" y="70"/>
		</contour>
	</outline>
</glyph>
<glyph name="zero.osf" format="2">
	<advance width="622"/>
	<outline>
		<contour>
			<point x="293" y="-10" type="curve" smooth="yes"/>
			<point x="437" y="-10"/>
			<point x="560" y="96"/>
			<point x="571" y="250" type="curve" smooth="yes"/>
			<point x="582" y="404"/>
			<point x="473" y="510"/>
			<point x="329" y="510" type="curve" smooth="yes"/>
			<point x="185" y="510"/>
			<point x="62" y="404"/>
			<point x="51" y="250" type="curve" smooth="yes"/>
			<point x="40" y="96"/>
			<point x="149" y="-10"/>
		</contour>
		<contour>
			<point x="324" y="70" type="curve" smooth="yes"/>
			<point x="224" y="70"/>
			<point x="149" y="140"/>
			<point x="141" y="250" type="curve" smooth="yes"/>
			<point x="133" y="360"/>
			<point x="188" y="430"/>
			<point x="298" y="430" type="curve" smooth="yes"/>
			<point x="398" y="430"/>
			<point x="473" y="360"/>
			<point x="481" y="250" type="curve" smooth="yes"/>
			<point x="489" y="140"/>
			<point x="434" y="70"/>
		</contour>
	</outline>
</glyph>
